# File generated by ImageToStl.com - Free Image and 3D model conversion tools

mtllib car_arrow.mtl

o obj1
v 2.259969 0 1.31677699
v 0.00391456 0 -3.25502968
v -0.00383976 0.34469479 0.04968646
v -2.25071478 0 1.4586283
v -0.00383976 -0.34469479 0.04968646
v -2.25071478 0 1.4586283
v 0.00391456 0 -3.25502968
v 2.259969 0 1.31677699
v -2.25071478 0 1.4586283
vn -0.0033 0.9946 -0.1037
vn 0.53129 0 0.84719
vn -0.0033 -0.9946 -0.1037
vn -0.48841 0 0.87262
vt 0.625 0.5
vt 0.875 0.5
vt 0.625 0.75
vt 0.875 0.75
vt 0.375 0.75
vt 0.375 1
vt 0.125 0.5
vt 0.375 0.5
vt 0.125 0.75
usemtl mat0
f 1/1/1 2/2/1 3/3/1
f 2/2/1 4/4/1 3/3/1
f 5/5/2 3/3/2 6/6/2
f 7/7/3 8/8/3 5/5/3
f 7/7/3 5/5/3 9/9/3
f 1/1/4 3/3/4 5/5/4
# Vertices: 9, normals: 4, texture coordinates: 9, faces: 6

