# File generated by ImageToStl.com - Free Image and 3D model conversion tools

mtllib map_pin_location_pin.mtl

o obj1
v 0.01434048 0.60804332 -0.03606188
v 0.02514108 0.60808605 -0.03606188
v 0.03112967 0.60433416 -0.03606188
v 0.01733179 0.60423289 -0.03606188
v 0.03622408 0.60793104 -0.03606188
v 0.04499498 0.60440823 -0.03606188
v 0.03701 0.60025757 -0.03606188
v 0.02026414 0.60015505 -0.03606188
v 0.0537424 0.60040082 -0.03606188
v 0.00382938 0.61156789 -0.03606188
v 0.01132083 0.61171914 -0.03606188
v 0.0036757 0.60792723 -0.03606188
v 0.0191076 0.61166854 -0.03606188
v 0.02753505 0.61113897 -0.03606188
v 0.03689304 0.60989656 -0.03606188
v 0.04754191 0.60760446 -0.03606188
v 0.05890328 0.60446152 -0.03606188
v 0.07046923 0.60056345 -0.03606188
v 0.08167639 0.59604912 -0.03606188
v 0.06216682 0.59588999 -0.03606188
v 0.04264474 0.59575882 -0.03606188
v 0.02309764 0.59568407 -0.03606188
v 0.00348769 0.60012134 -0.03606188
v 0.00351301 0.5956937 -0.03606188
v 0.00355186 0.60415539 -0.03606188
v -0.02696496 0.56812019 -0.03606188
v -0.02913417 0.56106293 -0.03606188
v -0.0628271 0.56136487 -0.03606188
v -0.0583702 0.56858696 -0.03606188
v -0.03127462 0.55221511 -0.03606188
v -0.06726567 0.55198929 -0.03606188
v -0.09679532 0.56187679 -0.03606188
v -0.08986366 0.56915762 -0.03606187
v -0.10400063 0.55226365 -0.03606188
v 0.00423434 0.5739084 -0.03606188
v 0.00432929 0.56778047 -0.03606188
v -0.02483888 0.57422354 -0.03606188
v 0.00431656 0.5608418 -0.03606188
v 0.00417669 0.55239976 -0.03606188
v 0.00389022 0.54176144 -0.03606188
v -0.03331444 0.54074047 -0.03606188
v -0.07159994 0.53944601 -0.03606187
v -0.11151647 0.53921989 -0.03606188
v -0.15240023 0.53973625 -0.03606188
v -0.14117157 0.55287591 -0.03606188
v -0.13092014 0.56252002 -0.03606187
v -0.12140361 0.56978364 -0.03606187
v -0.08316878 0.57520404 -0.03606188
v -0.1123796 0.57578196 -0.03606187
v -0.0539809 0.57466997 -0.03606187
v 0.04136178 0.52832855 -0.03606188
v 0.08151159 0.52568234 -0.03606188
v 0.07993246 0.5070121 -0.03606188
v 0.03749301 0.51696025 -0.03606188
v 0.12499802 0.5242022 -0.03606188
v 0.13399423 0.50588619 -0.03606188
v 0.1475471 0.48480898 -0.03606188
v 0.10981568 0.4848243 -0.03606188
v 0.08549259 0.48254856 -0.03606188
v 0.06865982 0.49512086 -0.03606188
v 0.04896005 0.501803 -0.03606188
v 0.0435 0.50784692 -0.03606188
v 0.02539329 0.51196017 -0.03606188
v 0.04088955 0.54126853 -0.03606188
v 0.00345406 0.52914191 -0.03606188
v 0.07864653 0.54009374 -0.03606188
v 0.00293076 0.51838675 -0.03606188
v 0.15789794 0.53885314 -0.03606188
v 0.16939513 0.52342539 -0.03606188
v 0.11783662 0.53930639 -0.03606188
v 0.18088312 0.50492408 -0.03606187
v 0.1988658 0.46087607 -0.03606188
v 0.15865551 0.46184353 -0.03606188
v 0.19112051 0.48389302 -0.03606188
v 0.12357961 0.46370014 -0.03606188
v 0.0756768 0.47126611 -0.03606188
v 0.06781934 0.47982203 -0.03606187
v 0.09706101 0.46703855 -0.03606188
v 0.05873326 0.48798125 -0.03606188
v 0.03901752 0.50141014 -0.03606188
v 0.02939349 0.50575852 -0.03606188
v 0.04895819 0.49530098 -0.03606188
v 0.02004594 0.50866013 -0.03606188
v 0.00183873 0.51073339 -0.03606188
v 0.00238679 0.51290561 -0.03606188
v 0.01089354 0.51024955 -0.03606188
v 0.10284819 0.45063664 -0.03606188
v 0.1286783 0.44080128 -0.03606188
v 0.12151219 0.41090033 -0.03606188
v 0.10280622 0.43597669 -0.03606188
v 0.16367048 0.43718814 -0.03606188
v 0.16376104 0.41112201 -0.03606188
v 0.16190003 0.38514996 -0.03606188
v 0.12564429 0.38168607 -0.03606188
v 0.09719055 0.37204818 -0.03606188
v 0.09841145 0.3856363 -0.03606188
v 0.09454618 0.3930327 -0.03606188
v 0.10159058 0.41033758 -0.03606188
v 0.09789379 0.42764177 -0.03606188
v 0.08187884 0.46262728 -0.03606188
v 0.08645025 0.4537023 -0.03606188
v 0.20314615 0.4364317 -0.03606188
v 0.20406256 0.41117687 -0.03606188
v 0.19728159 0.36076239 -0.03606188
v 0.1560781 0.36061136 -0.03606188
v 0.20198453 0.38574324 -0.03606188
v 0.11957645 0.35955863 -0.03606188
v 0.06694793 0.35354587 -0.03606188
v 0.07300848 0.36029071 -0.03606188
v 0.09091127 0.3570031 -0.03606188
v 0.07835631 0.36788633 -0.03606188
v 0.08664478 0.38642775 -0.03606188
v 0.08935405 0.39777672 -0.03606188
v 0.08291432 0.37654778 -0.03606188
v 0.09109025 0.40986456 -0.03606188
v 0.0913025 0.43371828 -0.03606188
v 0.08952867 0.44415893 -0.03606188
v 0.09174563 0.42205886 -0.03606188
v 0.08014283 0.34327192 -0.03606188
v 0.10641069 0.33925366 -0.03606188
v 0.07814316 0.31730534 -0.03606188
v 0.06484398 0.33319185 -0.03606188
v 0.1455452 0.33739082 -0.03606188
v 0.13304338 0.31395573 -0.03606188
v 0.12426353 0.28883139 -0.03606188
v 0.08018303 0.28909808 -0.03606188
v 0.0400667 0.28697744 -0.03606188
v 0.03670939 0.30679163 -0.03606188
v 0.02498804 0.31886158 -0.03606188
v 0.04237949 0.32348262 -0.03606188
v 0.04666759 0.3303096 -0.03606188
v 0.06025104 0.34748059 -0.03606188
v 0.05299141 0.34209966 -0.03606187
v 0.19026661 0.3365951 -0.03606188
v 0.18102568 0.31251903 -0.03606188
v 0.15598397 0.26066768 -0.03606188
v 0.1153956 0.26215607 -0.03606188
v 0.16958831 0.28754097 -0.03606188
v 0.07585781 0.2630328 -0.03606188
v 0.00119117 0.26328745 -0.03606188
v 0.00247031 0.28586463 -0.03606188
v 0.03805302 0.26303392 -0.03606188
v 0.00275542 0.30452252 -0.03606188
v 0.00183873 0.32657673 -0.03606188
v 0.01086294 0.32702336 -0.03606188
v 0.00244152 0.31729402 -0.03606188
v 0.01980116 0.32835178 -0.03606187
v 0.03708991 0.33355118 -0.03606188
v 0.04524195 0.33745184 -0.03606188
v 0.02856737 0.33054498 -0.03606188
v 0.0189407 0.18456251 -0.03606188
v 0.02685341 0.21126911 -0.03606188
v 0.05878482 0.20754676 -0.03606188
v 0.04747744 0.1787508 -0.03606188
v 0.03338508 0.23756312 -0.03606188
v 0.06845001 0.23579988 -0.03606187
v 0.09082365 0.2036699 -0.03606188
v 0.07591667 0.17286941 -0.03606188
v 0.1041761 0.2336406 -0.03606188
v -0.01506843 0.16572751 -0.03606188
v -0.00976821 0.19029419 -0.03606188
v 0.01012958 0.15785386 -0.03606188
v -0.00512391 0.21495538 -0.03606188
v -0.00138696 0.23939265 -0.03606188
v 0.14031047 0.2312099 -0.03606188
v 0.12293923 0.19969405 -0.03606188
v 0.10431002 0.16695052 -0.03606188
v 0.06003361 0.14186468 -0.03606188
v 0.08486262 0.13380969 -0.03606188
v 0.03514309 0.1498895 -0.03606188
v -0.01855819 0.59094655 -0.03606188
v -0.02074288 0.58566102 -0.03606188
v -0.04536974 0.5859896 -0.03606188
v -0.04079845 0.59121034 -0.03606188
v -0.02279522 0.5800524 -0.03606188
v -0.04969775 0.58044254 -0.03606188
v -0.07002422 0.5863925 -0.03606188
v -0.06306406 0.59153911 -0.03606188
v -0.0766341 0.58091512 -0.03606188
v 0.00364405 0.59078029 -0.03606188
v -0.01611747 0.59580661 -0.03606188
v 0.00384254 0.58544371 -0.03606188
v 0.0040566 0.57978593 -0.03606188
v -0.10358735 0.58142874 -0.03606188
v -0.09469252 0.58683256 -0.03606188
v -0.08534235 0.59190035 -0.03606188
v -0.05547852 0.59625736 -0.03606188
v -0.07518406 0.59653916 -0.03606188
v -0.03578549 0.59600384 -0.03606188
v -0.01421409 0.08395 -0.03606188
v -0.00747098 0.10670335 -0.03606188
v 0.01063075 0.09479054 -0.03606188
v 0.00075074 0.07075879 -0.03606188
v 0.00100101 0.13163253 -0.03606188
v 0.02249404 0.12155405 -0.03606188
v 0.02859019 0.08290274 -0.03606188
v 0.0154753 0.05778917 -0.03606187
v 0.04387006 0.111426 -0.03606188
v -0.03104209 0.07879105 -0.03606188
v -0.02953931 0.09747354 -0.03606188
v -0.01815598 0.06425612 -0.03606188
v -0.02578614 0.1186537 -0.03606188
v -0.02066753 0.14163664 -0.03606188
v 0.06518759 0.10127315 -0.03606188
v 0.0464785 0.07102745 -0.03606188
v 0.03007973 0.04493033 -0.03606188
v 0.0058067 0.03757951 -0.03606188
v 0.01733565 0.02483953 -0.03606188
v -0.00594845 0.05061866 -0.03606188
v -0.01163707 0.02396735 -0.03606188
v -0.01606867 0.03509266 -0.03606188
v -0.00807741 0.02345251 -0.03606188
v -0.00532217 0.01433863 -0.03606188
v -0.01856458 0.0481943 -0.03606188
v -0.00865219 0.03512995 -0.03606188
v -0.00137258 0.01381843 -0.03606188
v -0.00086283 0.00769754 -0.03606188
v 0.00045241 0.0232642 -0.03606188
v -0.01465058 0.02700979 -0.03606189
v -0.02070807 0.03795977 -0.03606189
v -0.00623775 0.01383067 -0.03606189
v -0.02598171 0.04970788 -0.03606188
v -0.02968766 0.06305227 -0.03606188
v 0.009153 0.01199823 -0.03606188
v 0.00468816 0.00519118 -0.03606187
v 0.00265986 0.00258855 -0.03606188
v 0.00080537 0.00327734 -0.03606188
v 0.00179208 0.00233779 -0.03606188
v -0.00147761 0.0065103 -0.03606189
v -0.0624823 0.10276256 -0.03606188
v -0.06698834 0.11089116 -0.03606188
v -0.0521315 0.08867608 -0.03606188
v -0.0474191 0.0793824 -0.03606187
v -0.07061171 0.11879785 -0.03606188
v -0.05606705 0.0988826 -0.03606188
v -0.03820312 0.06788045 -0.03606188
v -0.03302116 0.05703923 -0.03606188
v -0.04228544 0.08009262 -0.03606188
v -0.06972419 0.11375387 -0.03606188
v -0.07752454 0.12610552 -0.03606188
v -0.05718136 0.09396731 -0.03606187
v -0.08227447 0.13376104 -0.03606188
v -0.08553352 0.13926888 -0.03606188
v -0.08907077 0.1455067 -0.03606188
v -0.07399811 0.12807989 -0.03606188
v -0.05915165 0.11095223 -0.03606188
v -0.04475757 0.0944229 -0.03606188
v -0.02728502 0.0468766 -0.03606189
v -0.04228337 0.0704902 -0.03606188
v -0.0777975 0.14014907 -0.03606188
v -0.0820833 0.15474236 -0.03606188
v -0.06315158 0.14268361 -0.03606188
v -0.06143113 0.12566541 -0.03606188
v -0.0867847 0.17117797 -0.03606188
v -0.06460914 0.16138872 -0.03606188
v -0.04436215 0.1306499 -0.03606188
v -0.04530503 0.11140329 -0.03606188
v -0.04255058 0.15154985 -0.03606188
v -0.09428402 0.15474355 -0.03606188
v -0.10108615 0.16681362 -0.03606188
v -0.10901877 0.18094244 -0.03606187
v -0.11762346 0.19635557 -0.03606188
v -0.09183096 0.18877412 -0.03606187
v -0.06609995 0.18116246 -0.03606188
v -0.04049194 0.17349033 -0.03606188
v 0.07001004 0.5908987 -0.03606188
v 0.0773364 0.58549763 -0.03606188
v 0.05287068 0.58539304 -0.03606188
v 0.04791761 0.59078336 -0.03606188
v 0.08429084 0.57976891 -0.03606188
v 0.05758554 0.57967846 -0.03606188
v 0.02837733 0.58536264 -0.03606188
v 0.02579984 0.590733 -0.03606188
v 0.03084643 0.57967046 -0.03606188
v 0.0920898 0.59104651 -0.03606187
v 0.10178833 0.58563937 -0.03606188
v 0.11097924 0.57990052 -0.03606188
v 0.11986985 0.57390289 -0.03606188
v 0.0910183 0.5737948 -0.03606188
v 0.06214382 0.5737305 -0.03606188
v 0.03322348 0.57375377 -0.03606188
v -0.09715218 0.20700784 -0.03606188
v -0.10268196 0.22599134 -0.03606188
v -0.06983578 0.2224318 -0.03606188
v -0.06785391 0.20151027 -0.03606188
v -0.10835474 0.24599552 -0.03606188
v -0.07194413 0.24405035 -0.03606188
v -0.03732426 0.21871304 -0.03606188
v -0.03870841 0.1959424 -0.03606188
v -0.03636438 0.24169313 -0.03606188
v -0.12652951 0.21246754 -0.03606188
v -0.13571667 0.22944899 -0.03606188
v -0.14525235 0.24765969 -0.03606188
v -0.15520398 0.26745934 -0.03606188
v -0.11410497 0.26729148 -0.03606188
v -0.07407743 0.26648915 -0.03606188
v -0.03585358 0.26477347 -0.03606188
v -0.02018792 0.3187573 -0.03606188
v -0.03131926 0.30674005 -0.03606188
v -0.07296111 0.31700318 -0.03606188
v -0.03781308 0.32330666 -0.03606188
v -0.03528245 0.28742537 -0.03606188
v -0.07569446 0.28994163 -0.03606188
v -0.12000864 0.29002723 -0.03606188
v -0.12775428 0.31357776 -0.03606188
v -0.14039653 0.33655409 -0.03606188
v -0.10164339 0.33848533 -0.03606188
v -0.07589917 0.34280825 -0.03606188
v -0.06043306 0.33293288 -0.03606187
v -0.04251491 0.33018418 -0.03606188
v -0.00718549 0.32702336 -0.03606188
v -0.01612371 0.32835184 -0.03606188
v -0.1655112 0.28905336 -0.03606188
v -0.1756027 0.31203009 -0.03606188
v -0.19234214 0.35986739 -0.03606188
v -0.15160513 0.35919549 -0.03606188
v -0.18477938 0.33582342 -0.03606188
v -0.11548763 0.35802814 -0.03606188
v -0.06327048 0.35354587 -0.03606188
v -0.05657358 0.34748059 -0.03606188
v -0.0870693 0.35603473 -0.03606188
v -0.04931395 0.34209969 -0.03606188
v -0.03341246 0.33355118 -0.03606188
v -0.02488992 0.33054498 -0.03606188
v -0.0415645 0.33745184 -0.03606188
v -0.09380853 0.37002324 -0.03606188
v -0.1223507 0.37837878 -0.03606188
v -0.1194632 0.40385332 -0.03606188
v -0.09540493 0.38218105 -0.03606188
v -0.15819114 0.38212835 -0.03606188
v -0.16075265 0.40588805 -0.03606188
v -0.16110418 0.43018236 -0.03606188
v -0.12764844 0.43146164 -0.03606188
v -0.10427691 0.43763777 -0.03606188
v -0.10284215 0.42350616 -0.03606188
v -0.09685682 0.41523494 -0.03606188
v -0.09942132 0.40198407 -0.03606188
v -0.09158836 0.38834779 -0.03606188
v -0.06933576 0.36024274 -0.03606188
v -0.07471667 0.36750239 -0.03606188
v -0.19763673 0.38371526 -0.03606188
v -0.20018817 0.40739731 -0.03606188
v -0.19534116 0.45486198 -0.03606188
v -0.15604454 0.45418823 -0.03606188
v -0.19956634 0.43106303 -0.03606188
v -0.12289467 0.45374971 -0.03606188
v -0.08323054 0.45389192 -0.03606188
v -0.08627134 0.4453837 -0.03606187
v -0.09998926 0.4537032 -0.03606188
v -0.08846452 0.43661748 -0.03606188
v -0.09027704 0.41865508 -0.03606188
v -0.08979297 0.40963083 -0.03606188
v -0.08979297 0.4276793 -0.03606188
v -0.08846451 0.40069262 -0.03606188
v -0.08326514 0.38340388 -0.03606188
v -0.07936451 0.37525186 -0.03606187
v -0.08627134 0.39192643 -0.03606188
v -0.11947111 0.52197377 -0.03606188
v -0.07532621 0.52299672 -0.03606188
v -0.07489346 0.50077783 -0.03606188
v -0.12945576 0.50112728 -0.03606188
v -0.03465673 0.52669568 -0.03606188
v -0.03180315 0.51461691 -0.03606188
v -0.02066036 0.51055199 -0.03606188
v -0.03848258 0.5061785 -0.03606187
v -0.04270152 0.5026954 -0.03606187
v -0.05826092 0.49676849 -0.03606188
v -0.06580435 0.48739273 -0.03606188
v -0.0768489 0.48195309 -0.03606188
v -0.09007953 0.46935427 -0.03606188
v -0.10864919 0.47561393 -0.03606188
v -0.14423024 0.47800045 -0.03606188
v -0.16458926 0.52237542 -0.03606188
v -0.17668459 0.5016272 -0.03606188
v -0.00718549 0.51028683 -0.03606188
v -0.01612371 0.50895835 -0.03606187
v -0.03341246 0.50375895 -0.03606188
v -0.0415645 0.49985829 -0.03606188
v -0.02488992 0.50676514 -0.03606188
v -0.04931395 0.49521047 -0.03606188
v -0.06329696 0.48379078 -0.03606188
v -0.06933576 0.47706742 -0.03606188
v -0.05657358 0.48982954 -0.03606188
v -0.07471668 0.46980777 -0.03606188
v -0.07936451 0.46205827 -0.03606187
v -0.18737298 0.47871489 -0.03606188
v 0.09765245 0.56750462 -0.03606188
v 0.10428198 0.56021653 -0.03606188
v 0.07089248 0.56033169 -0.03606188
v 0.06659905 0.56749429 -0.03606188
v 0.11098424 0.55109542 -0.03606188
v 0.07493726 0.55145935 -0.03606188
v 0.03761072 0.56057189 -0.03606188
v 0.0355053 0.56757718 -0.03606188
v 0.03943904 0.55203633 -0.03606188
v 0.12868812 0.56756404 -0.03606188
v 0.13774467 0.56018144 -0.03606188
v 0.14737086 0.55089713 -0.03606188
v -0.0292267 0.60743425 -0.03606188
v -0.01796154 0.6077158 -0.03606188
v -0.02419435 0.60417009 -0.03606188
v -0.03823408 0.60418004 -0.03606188
v -0.00703557 0.60784528 -0.03606188
v -0.01027414 0.60414676 -0.03606188
v -0.03020161 0.6003023 -0.03606188
v -0.0471054 0.60047013 -0.03606188
v -0.01333466 0.60017682 -0.03606188
v -0.02984487 0.60913686 -0.03606188
v -0.02024698 0.61040217 -0.03606188
v -0.04075714 0.60701809 -0.03606188
v -0.01162539 0.61109481 -0.03606188
v -0.00370916 0.61140757 -0.03606187
v -0.06402877 0.60065835 -0.03606187
v -0.05234301 0.60417741 -0.03606188
v 0.01434048 0.60804332 0.04395881
v 0.01733179 0.60423289 0.04395881
v 0.03112967 0.60433416 0.04395881
v 0.02514108 0.60808605 0.04395881
v 0.04499498 0.60440823 0.04395881
v 0.03622408 0.60793104 0.04395881
v 0.02026414 0.60015505 0.04395881
v 0.03701 0.60025757 0.04395881
v 0.0537424 0.60040082 0.04395881
v 0.00382938 0.61156789 0.04395881
v 0.0036757 0.60792723 0.04395881
v 0.01132083 0.61171914 0.04395881
v 0.0191076 0.61166854 0.04395881
v 0.02753505 0.61113897 0.04395881
v 0.04754191 0.60760446 0.04395881
v 0.03689304 0.60989656 0.04395881
v 0.05890328 0.60446152 0.04395881
v 0.07046923 0.60056345 0.04395881
v 0.06216682 0.59588999 0.04395881
v 0.08167639 0.59604912 0.04395881
v 0.04264474 0.59575882 0.04395881
v 0.02309764 0.59568407 0.04395881
v 0.00348769 0.60012134 0.04395881
v 0.00351301 0.5956937 0.04395881
v 0.00355186 0.60415539 0.04395881
v -0.02696496 0.56812019 0.04395881
v -0.0583702 0.56858696 0.04395881
v -0.0628271 0.56136487 0.04395881
v -0.02913417 0.56106293 0.04395881
v -0.06726567 0.55198929 0.04395881
v -0.03127462 0.55221511 0.04395881
v -0.08986366 0.56915762 0.04395881
v -0.09679532 0.56187679 0.04395881
v -0.10400063 0.55226365 0.04395881
v 0.00423434 0.5739084 0.04395881
v -0.02483888 0.57422354 0.04395881
v 0.00432929 0.56778047 0.04395881
v 0.00431656 0.5608418 0.04395881
v 0.00417669 0.55239976 0.04395881
v -0.03331444 0.54074047 0.04395881
v 0.00389022 0.54176144 0.04395881
v -0.07159994 0.53944601 0.04395881
v -0.11151647 0.53921989 0.04395881
v -0.14117157 0.55287591 0.04395881
v -0.15240023 0.53973625 0.04395881
v -0.13092014 0.56252002 0.04395881
v -0.12140361 0.56978364 0.04395881
v -0.08316878 0.57520404 0.04395881
v -0.1123796 0.57578196 0.04395881
v -0.0539809 0.57466997 0.04395881
v 0.04136178 0.52832855 0.04395881
v 0.03749301 0.51696025 0.04395881
v 0.07993246 0.5070121 0.04395881
v 0.08151159 0.52568234 0.04395881
v 0.12499802 0.5242022 0.04395881
v 0.13399423 0.50588619 0.04395881
v 0.1475471 0.48480898 0.04395881
v 0.10981568 0.4848243 0.04395881
v 0.08549259 0.48254856 0.04395881
v 0.06865982 0.49512086 0.04395881
v 0.04896005 0.501803 0.04395881
v 0.0435 0.50784692 0.04395881
v 0.02539329 0.51196017 0.04395881
v 0.00345406 0.52914191 0.04395881
v 0.04088955 0.54126853 0.04395881
v 0.07864653 0.54009374 0.04395881
v 0.00293076 0.51838675 0.04395881
v 0.15789794 0.53885314 0.04395881
v 0.11783662 0.53930639 0.04395881
v 0.16939513 0.52342539 0.04395881
v 0.18088312 0.50492408 0.04395881
v 0.1988658 0.46087607 0.04395881
v 0.19112051 0.48389302 0.04395881
v 0.15865551 0.46184353 0.04395881
v 0.12357961 0.46370014 0.04395881
v 0.0756768 0.47126611 0.04395881
v 0.09706101 0.46703855 0.04395881
v 0.06781934 0.47982203 0.04395881
v 0.05873326 0.48798125 0.04395881
v 0.03901752 0.50141014 0.04395881
v 0.04895819 0.49530098 0.04395881
v 0.02939349 0.50575852 0.04395881
v 0.02004594 0.50866013 0.04395881
v 0.00183873 0.51073339 0.04395881
v 0.01089354 0.51024955 0.04395881
v 0.00238679 0.51290561 0.04395881
v 0.10284819 0.45063664 0.04395881
v 0.10280622 0.43597669 0.04395881
v 0.12151219 0.41090033 0.04395881
v 0.1286783 0.44080128 0.04395881
v 0.16367048 0.43718814 0.04395881
v 0.16376104 0.41112201 0.04395881
v 0.16190003 0.38514996 0.04395881
v 0.12564429 0.38168607 0.04395881
v 0.09719055 0.37204818 0.04395881
v 0.09841145 0.3856363 0.04395881
v 0.09454618 0.3930327 0.04395881
v 0.10159058 0.41033758 0.04395881
v 0.09789379 0.42764177 0.04395881
v 0.08187884 0.46262728 0.04395881
v 0.08645025 0.4537023 0.04395881
v 0.20314615 0.4364317 0.04395881
v 0.20406256 0.41117687 0.04395881
v 0.19728159 0.36076239 0.04395881
v 0.20198453 0.38574324 0.04395881
v 0.1560781 0.36061136 0.04395881
v 0.11957645 0.35955863 0.04395881
v 0.06694793 0.35354587 0.04395881
v 0.09091127 0.3570031 0.04395881
v 0.07300848 0.36029071 0.04395881
v 0.07835631 0.36788633 0.04395881
v 0.08664478 0.38642775 0.04395881
v 0.08291432 0.37654778 0.04395881
v 0.08935405 0.39777672 0.04395881
v 0.09109025 0.40986456 0.04395881
v 0.0913025 0.43371828 0.04395881
v 0.09174563 0.42205886 0.04395881
v 0.08952867 0.44415893 0.04395881
v 0.08014283 0.34327192 0.04395881
v 0.06484398 0.33319185 0.04395881
v 0.07814316 0.31730534 0.04395881
v 0.10641069 0.33925366 0.04395881
v 0.1455452 0.33739082 0.04395881
v 0.13304338 0.31395573 0.04395881
v 0.12426353 0.28883139 0.04395881
v 0.08018303 0.28909808 0.04395881
v 0.0400667 0.28697744 0.04395881
v 0.03670939 0.30679163 0.04395881
v 0.02498804 0.31886158 0.04395881
v 0.04237949 0.32348262 0.04395881
v 0.04666759 0.3303096 0.04395881
v 0.06025104 0.34748059 0.04395881
v 0.05299141 0.34209966 0.04395881
v 0.19026661 0.3365951 0.04395881
v 0.18102568 0.31251903 0.04395881
v 0.15598397 0.26066768 0.04395881
v 0.16958831 0.28754097 0.04395881
v 0.1153956 0.26215607 0.04395881
v 0.07585781 0.2630328 0.04395881
v 0.00119117 0.26328745 0.04395881
v 0.03805302 0.26303392 0.04395881
v 0.00247031 0.28586463 0.04395881
v 0.00275542 0.30452252 0.04395881
v 0.00183873 0.32657673 0.04395881
v 0.00244152 0.31729402 0.04395881
v 0.01086294 0.32702336 0.04395881
v 0.01980116 0.32835178 0.04395881
v 0.03708991 0.33355118 0.04395881
v 0.02856737 0.33054498 0.04395881
v 0.04524195 0.33745184 0.04395881
v 0.0189407 0.18456251 0.04395881
v 0.04747744 0.1787508 0.04395881
v 0.05878482 0.20754676 0.04395881
v 0.02685341 0.21126911 0.04395881
v 0.06845001 0.23579988 0.04395881
v 0.03338508 0.23756312 0.04395881
v 0.07591667 0.17286941 0.04395881
v 0.09082365 0.2036699 0.04395881
v 0.1041761 0.2336406 0.04395881
v -0.01506843 0.16572751 0.04395881
v 0.01012958 0.15785386 0.04395881
v -0.00976821 0.19029419 0.04395881
v -0.00512391 0.21495538 0.04395881
v -0.00138696 0.23939265 0.04395881
v 0.14031047 0.2312099 0.04395881
v 0.12293923 0.19969405 0.04395881
v 0.10431002 0.16695052 0.04395881
v 0.06003361 0.14186468 0.04395881
v 0.08486262 0.13380969 0.04395881
v 0.03514309 0.1498895 0.04395881
v -0.01855819 0.59094655 0.04395881
v -0.04079845 0.59121034 0.04395881
v -0.04536974 0.5859896 0.04395881
v -0.02074288 0.58566102 0.04395881
v -0.04969775 0.58044254 0.04395881
v -0.02279522 0.5800524 0.04395881
v -0.06306406 0.59153911 0.04395881
v -0.07002422 0.5863925 0.04395881
v -0.0766341 0.58091512 0.04395881
v -0.01611747 0.59580661 0.04395881
v 0.00364405 0.59078029 0.04395881
v 0.00384254 0.58544371 0.04395881
v 0.0040566 0.57978593 0.04395881
v -0.10358735 0.58142874 0.04395881
v -0.09469252 0.58683256 0.04395881
v -0.08534235 0.59190035 0.04395881
v -0.05547852 0.59625736 0.04395881
v -0.07518406 0.59653916 0.04395881
v -0.03578549 0.59600384 0.04395881
v -0.01421409 0.08395 0.04395881
v 0.00075074 0.07075879 0.04395881
v 0.01063075 0.09479054 0.04395881
v -0.00747099 0.10670335 0.04395881
v 0.02249404 0.12155405 0.04395881
v 0.00100101 0.13163253 0.04395881
v 0.0154753 0.05778917 0.04395881
v 0.02859019 0.08290274 0.04395881
v 0.04387006 0.111426 0.04395881
v -0.03104209 0.07879105 0.04395881
v -0.01815598 0.06425611 0.04395881
v -0.02953931 0.09747354 0.04395881
v -0.02578614 0.1186537 0.04395881
v -0.02066753 0.14163664 0.04395881
v 0.06518759 0.10127315 0.04395881
v 0.0464785 0.07102745 0.04395881
v 0.03007973 0.04493033 0.04395881
v 0.00580669 0.03757951 0.04395881
v 0.01733565 0.02483953 0.04395881
v -0.00594845 0.05061866 0.04395881
v -0.01163716 0.0239673 0.04395881
v -0.00532226 0.01433858 0.04395881
v -0.00807744 0.02345249 0.04395881
v -0.0160687 0.03509264 0.04395881
v -0.0086522 0.03512994 0.04395881
v -0.01856458 0.04819429 0.04395881
v -0.00086292 0.0076975 0.04395881
v -0.00137261 0.01381842 0.04395881
v 0.0004524 0.0232642 0.04395881
v -0.0146507 0.02700972 0.04395881
v -0.00623789 0.01383059 0.04395881
v -0.02070814 0.03795973 0.04395881
v -0.02598174 0.04970786 0.04395881
v -0.02968767 0.06305226 0.04395881
v 0.009153 0.01199823 0.04395881
v 0.00468814 0.00519117 0.04395881
v 0.0026598 0.00258853 0.04395881
v 0.00080527 0.0032773 0.04395881
v 0.00179197 0.00233775 0.04395881
v -0.00147775 0.00651023 0.04395881
v -0.06248235 0.10276252 0.04395881
v -0.04741916 0.07938236 0.04395881
v -0.05213153 0.08867607 0.04395881
v -0.06698836 0.11089115 0.04395881
v -0.05606705 0.09888259 0.04395881
v -0.07061171 0.11879785 0.04395881
v -0.03302122 0.05703918 0.04395881
v -0.03820314 0.06788043 0.04395881
v -0.04228544 0.08009262 0.04395881
v -0.06972426 0.11375382 0.04395881
v -0.05718144 0.09396726 0.04395881
v -0.07752456 0.1261055 0.04395881
v -0.08227448 0.13376104 0.04395881
v -0.08553352 0.13926888 0.04395881
v -0.07399811 0.12807989 0.04395881
v -0.08907077 0.1455067 0.04395881
v -0.05915165 0.11095223 0.04395881
v -0.04475758 0.0944229 0.04395881
v -0.02728512 0.04687653 0.04395881
v -0.04228346 0.07049014 0.04395881
v -0.0777975 0.14014907 0.04395881
v -0.06143113 0.12566541 0.04395881
v -0.06315158 0.14268361 0.04395881
v -0.0820833 0.15474236 0.04395881
v -0.06460914 0.16138872 0.04395881
v -0.0867847 0.17117797 0.04395881
v -0.04530503 0.11140329 0.04395881
v -0.04436215 0.1306499 0.04395881
v -0.04255058 0.15154985 0.04395881
v -0.09428402 0.15474355 0.04395881
v -0.10108615 0.16681362 0.04395881
v -0.10901877 0.18094244 0.04395881
v -0.09183096 0.18877412 0.04395881
v -0.11762346 0.19635557 0.04395881
v -0.06609995 0.18116246 0.04395881
v -0.04049194 0.17349033 0.04395881
v 0.07001004 0.5908987 0.04395881
v 0.04791761 0.59078336 0.04395881
v 0.05287068 0.58539304 0.04395881
v 0.0773364 0.58549763 0.04395881
v 0.05758554 0.57967846 0.04395881
v 0.08429084 0.57976891 0.04395881
v 0.02579984 0.590733 0.04395881
v 0.02837733 0.58536264 0.04395881
v 0.03084643 0.57967046 0.04395881
v 0.0920898 0.59104651 0.04395881
v 0.10178833 0.58563937 0.04395881
v 0.11097924 0.57990052 0.04395881
v 0.0910183 0.5737948 0.04395881
v 0.11986985 0.57390289 0.04395881
v 0.06214382 0.5737305 0.04395881
v 0.03322348 0.57375377 0.04395881
v -0.09715218 0.20700784 0.04395881
v -0.06785391 0.20151027 0.04395881
v -0.06983578 0.2224318 0.04395881
v -0.10268196 0.22599134 0.04395881
v -0.07194413 0.24405035 0.04395881
v -0.10835474 0.24599552 0.04395881
v -0.03870841 0.1959424 0.04395881
v -0.03732426 0.21871304 0.04395881
v -0.03636438 0.24169313 0.04395881
v -0.12652951 0.21246754 0.04395881
v -0.13571667 0.22944899 0.04395881
v -0.14525235 0.24765969 0.04395881
v -0.11410497 0.26729148 0.04395881
v -0.15520398 0.26745934 0.04395881
v -0.07407743 0.26648915 0.04395881
v -0.03585358 0.26477347 0.04395881
v -0.02018792 0.3187573 0.04395881
v -0.03781308 0.32330666 0.04395881
v -0.07296111 0.31700318 0.04395881
v -0.03131926 0.30674005 0.04395881
v -0.03528245 0.28742537 0.04395881
v -0.07569446 0.28994163 0.04395881
v -0.12000864 0.29002723 0.04395881
v -0.12775428 0.31357776 0.04395881
v -0.14039653 0.33655409 0.04395881
v -0.10164339 0.33848533 0.04395881
v -0.07589917 0.34280825 0.04395881
v -0.06043306 0.33293288 0.04395881
v -0.04251491 0.33018418 0.04395881
v -0.00718549 0.32702336 0.04395881
v -0.01612371 0.32835184 0.04395881
v -0.1655112 0.28905336 0.04395881
v -0.1756027 0.31203009 0.04395881
v -0.19234214 0.35986739 0.04395881
v -0.18477938 0.33582342 0.04395881
v -0.15160513 0.35919549 0.04395881
v -0.11548763 0.35802814 0.04395881
v -0.06327048 0.35354587 0.04395881
v -0.0870693 0.35603473 0.04395881
v -0.05657358 0.34748059 0.04395881
v -0.04931395 0.34209969 0.04395881
v -0.03341246 0.33355118 0.04395881
v -0.0415645 0.33745184 0.04395881
v -0.02488992 0.33054498 0.04395881
v -0.09380853 0.37002324 0.04395881
v -0.09540493 0.38218105 0.04395881
v -0.1194632 0.40385332 0.04395881
v -0.1223507 0.37837878 0.04395881
v -0.15819114 0.38212835 0.04395881
v -0.16075265 0.40588805 0.04395881
v -0.16110418 0.43018236 0.04395881
v -0.12764844 0.43146164 0.04395881
v -0.10427691 0.43763777 0.04395881
v -0.10284215 0.42350616 0.04395881
v -0.09685682 0.41523494 0.04395881
v -0.09942132 0.40198407 0.04395881
v -0.09158836 0.38834779 0.04395881
v -0.06933576 0.36024274 0.04395881
v -0.07471667 0.36750239 0.04395881
v -0.19763673 0.38371526 0.04395881
v -0.20018817 0.40739731 0.04395881
v -0.19534116 0.45486198 0.04395881
v -0.19956634 0.43106303 0.04395881
v -0.15604454 0.45418823 0.04395881
v -0.12289467 0.45374971 0.04395881
v -0.08323054 0.45389192 0.04395881
v -0.09998926 0.4537032 0.04395881
v -0.08627134 0.4453837 0.04395881
v -0.08846452 0.43661748 0.04395881
v -0.09027704 0.41865508 0.04395881
v -0.08979297 0.4276793 0.04395881
v -0.08979297 0.40963083 0.04395881
v -0.08846451 0.40069262 0.04395881
v -0.08326514 0.38340388 0.04395881
v -0.08627134 0.39192643 0.04395881
v -0.07936451 0.37525186 0.04395881
v -0.11947111 0.52197377 0.04395881
v -0.12945576 0.50112728 0.04395881
v -0.07489346 0.50077783 0.04395881
v -0.07532621 0.52299672 0.04395881
v -0.03465673 0.52669568 0.04395881
v -0.03180315 0.51461691 0.04395881
v -0.02066036 0.51055199 0.04395881
v -0.03848258 0.5061785 0.04395881
v -0.04270152 0.5026954 0.04395881
v -0.05826092 0.49676849 0.04395881
v -0.06580435 0.48739273 0.04395881
v -0.0768489 0.48195309 0.04395881
v -0.09007953 0.46935427 0.04395881
v -0.10864919 0.47561393 0.04395881
v -0.14423024 0.47800045 0.04395881
v -0.16458926 0.52237542 0.04395881
v -0.17668459 0.5016272 0.04395881
v -0.00718549 0.51028683 0.04395881
v -0.01612371 0.50895835 0.04395881
v -0.03341246 0.50375895 0.04395881
v -0.02488992 0.50676514 0.04395881
v -0.0415645 0.49985829 0.04395881
v -0.04931395 0.49521047 0.04395881
v -0.06329696 0.48379078 0.04395881
v -0.05657358 0.48982954 0.04395881
v -0.06933576 0.47706742 0.04395881
v -0.07471668 0.46980777 0.04395881
v -0.07936451 0.46205827 0.04395881
v -0.18737298 0.47871489 0.04395881
v 0.09765245 0.56750462 0.04395881
v 0.06659905 0.56749429 0.04395881
v 0.07089248 0.56033169 0.04395881
v 0.10428198 0.56021653 0.04395881
v 0.07493726 0.55145935 0.04395881
v 0.11098424 0.55109542 0.04395881
v 0.0355053 0.56757718 0.04395881
v 0.03761072 0.56057189 0.04395881
v 0.03943904 0.55203633 0.04395881
v 0.12868812 0.56756404 0.04395881
v 0.13774467 0.56018144 0.04395881
v 0.14737086 0.55089713 0.04395881
v -0.0292267 0.60743425 0.04395881
v -0.03823408 0.60418004 0.04395881
v -0.02419435 0.60417009 0.04395881
v -0.01796154 0.6077158 0.04395881
v -0.01027414 0.60414676 0.04395881
v -0.00703557 0.60784528 0.04395881
v -0.0471054 0.60047013 0.04395881
v -0.03020161 0.6003023 0.04395881
v -0.01333466 0.60017682 0.04395881
v -0.02984487 0.60913686 0.04395881
v -0.04075714 0.60701809 0.04395881
v -0.02024698 0.61040217 0.04395881
v -0.01162539 0.61109481 0.04395881
v -0.00370916 0.61140757 0.04395881
v -0.06402877 0.60065835 0.04395881
v -0.05234301 0.60417741 0.04395881
vn 0 0 -1
vn -0.0147 0.70708 -0.70698
vn -0.0049 0.71009 -0.70409
vn 0.0247 0.71292 -0.70082
vn 0.0695 0.71132 -0.69942
vn 0.1225 0.70532 -0.69822
vn 0.17029 0.69287 -0.70067
vn 0.2091 0.68191 -0.70091
vn 0.24729 0.66927 -0.70066
vn 0.2882 0.65351 -0.69991
vn -0.56698 0.43968 -0.69657
vn -0.52038 0.49608 -0.69507
vn -0.46461 0.54782 -0.69572
vn -0.4146 0.5817 -0.6998
vn -0.38781 0.59341 -0.70531
vn 0.55678 0.44958 -0.69848
vn 0.59207 0.40338 -0.69767
vn 0.6289 0.3471 -0.6957
vn 0.70102 0.1782 -0.69052
vn 0.66721 0.27331 -0.69291
vn -0.53769 -0.43729 -0.72088
vn -0.4894 -0.4948 -0.7181
vn -0.44209 -0.53858 -0.71728
vn -0.3378 -0.6368 -0.6931
vn -0.2457 -0.64759 -0.72129
vn -0.39148 -0.57607 -0.71756
vn -0.1621 -0.67272 -0.72192
vn -0.0014 -0.69516 -0.71886
vn -0.0779 -0.68888 -0.72068
vn -0.58851 -0.35921 -0.72431
vn -0.63561 -0.26331 -0.72572
vn 0.71792 0.0755 -0.69202
vn 0.7197 -0.0163 -0.6941
vn 0.69802 -0.16661 -0.69642
vn 0.7121 -0.0959 -0.6955
vn -0.49248 0.49058 -0.71888
vn -0.5422 0.432 -0.7207
vn -0.5903 0.3611 -0.7219
vn -0.68912 0.21141 -0.69312
vn -0.68416 0.13049 -0.71756
vn -0.63167 0.28419 -0.72127
vn -0.69346 0.0683 -0.71725
vn -0.71739 -0.0743 -0.69269
vn -0.6704 -0.1642 -0.7236
vn -0.69647 0.0055 -0.71757
vn -0.44121 0.53791 -0.71832
vn -0.38659 0.57848 -0.71827
vn 0.6789 -0.2284 -0.6978
vn 0.65828 -0.27669 -0.70008
vn 0.62962 -0.32681 -0.70482
vn 0.64093 -0.30882 -0.70274
vn -0 0.69561 -0.71842
vn -0.0684 0.69238 -0.71828
vn -0.1357 0.68239 -0.71829
vn -0.2751 0.6641 -0.6952
vn -0.32971 0.61321 -0.71782
vn -0.20051 0.66672 -0.71783
vn 0.62324 -0.33752 -0.70544
vn 0.61827 -0.34628 -0.70557
vn 0.61352 -0.35451 -0.70563
vn 0.6088 -0.3626 -0.7056
vn -0.3761 0.6021 -0.7043
vn -0.3549 0.6179 -0.7016
vn -0.31891 0.63951 -0.69951
vn -0.27261 0.66132 -0.69882
vn 0.60419 -0.3695 -0.70599
vn 0.60071 -0.37451 -0.70632
vn 0.59833 -0.37772 -0.70663
vn 0.59689 -0.3795 -0.70689
vn -0.5965 -0.3801 -0.7069
vn -0.59518 -0.38349 -0.70618
vn 0.5951 -0.3847 -0.7056
vn 0.58219 -0.4168 -0.69809
vn 0.4289 -0.6337 -0.6438
vn -0.5508 -0.4757 -0.6858
vn -0.18809 -0.76946 -0.61037
vn -0.58883 -0.39912 -0.70284
vn -0.5977 -0.3782 -0.7069
vn -0.6001 -0.3757 -0.7062
vn -0.59718 -0.37869 -0.70708
vn -0.60673 -0.36772 -0.70474
vn -0.61363 -0.35552 -0.70503
vn -0.6156 -0.3483 -0.70691
vn -0.59683 -0.37932 -0.70704
vn -0.59699 -0.37899 -0.70709
vn -0.616 -0.3474 -0.707
vn -0.61648 -0.34679 -0.70688
vn -0.61722 -0.34561 -0.70682
vn -0.61854 -0.34362 -0.70664
vn 0.32852 0.63373 -0.70033
vn 0.3623 0.6136 -0.7016
vn 0.38718 0.59637 -0.70316
vn 0.40599 0.58298 -0.70378
vn -0.62128 -0.33979 -0.70608
vn -0.6255 -0.333 -0.7056
vn -0.63082 -0.32361 -0.70522
vn -0.63703 -0.31211 -0.70483
vn 0.0684 0.69238 -0.71828
vn 0.1357 0.68239 -0.71829
vn -0.646 -0.296 -0.70361
vn -0.65842 -0.27141 -0.70202
vn -0.69221 -0.1853 -0.69751
vn -0.67411 -0.2357 -0.70001
vn 0.49189 0.49189 -0.71839
vn 0.44121 0.53791 -0.71832
vn 0.38659 0.57848 -0.71827
vn 0.2751 0.6641 -0.6952
vn 0.20051 0.66672 -0.71783
vn 0.32971 0.61321 -0.71782
vn 0.53791 0.44121 -0.71832
vn 0.57848 0.38659 -0.71827
vn -0.70969 -0.1166 -0.69479
vn -0.72091 -0.0292 -0.69241
vn -0.70057 0.17819 -0.69097
vn -0.71948 0.0729 -0.69068
vn 0.64269 -0.2662 -0.71839
vn 0.66582 -0.20171 -0.71833
vn 0.68239 -0.1357 -0.71829
vn 0.71881 0 -0.69521
vn 0.69272 0.0699 -0.71782
vn 0.69272 -0.0699 -0.71782
vn 0.68239 0.1357 -0.71829
vn 0.6641 0.2751 -0.6952
vn 0.61321 0.32971 -0.71782
vn 0.66672 0.20051 -0.71783
vn -0.60313 0.38652 -0.69774
vn -0.63531 0.3325 -0.69701
vn 0.0684 -0.69233 -0.71833
vn 0.1357 -0.68239 -0.71829
vn 0.2751 -0.6641 -0.6952
vn 0.32971 -0.61321 -0.71782
vn 0.20051 -0.66672 -0.71783
vn 0.38659 -0.57848 -0.71827
vn 0.50822 -0.50832 -0.69522
vn 0.53922 -0.44042 -0.71783
vn 0.44042 -0.53922 -0.71783
vn 0.57848 -0.38659 -0.71827
vn 0.61348 -0.32819 -0.71828
vn -0.66831 0.2665 -0.69451
vn 0.43402 0.56672 -0.70033
vn 0.47532 0.53582 -0.69783
vn 0.51892 0.49402 -0.69762
vn -0.11471 0.70454 -0.70034
vn -0.0751 0.7088 -0.7014
vn -0.1528 0.6959 -0.7017
vn -0.0425 0.71036 -0.70256
vn -0.0215 0.70879 -0.70509
vn -0.2267 0.6769 -0.7003
vn -0.1877 0.68771 -0.70131
vn -0 -0 1
vn -0.0147 0.70708 0.70698
vn -0.0049 0.71009 0.70409
vn 0.0247 0.71292 0.70082
vn 0.0695 0.71132 0.69942
vn 0.17029 0.69287 0.70067
vn 0.1225 0.70532 0.69822
vn 0.2091 0.68191 0.70091
vn 0.24729 0.66927 0.70066
vn 0.2882 0.65351 0.69991
vn -0.52038 0.49608 0.69507
vn -0.56698 0.43968 0.69657
vn -0.46461 0.54782 0.69572
vn -0.4146 0.5817 0.6998
vn -0.38772 0.59343 0.70534
vn 0.55678 0.44958 0.69848
vn 0.59207 0.40338 0.69767
vn 0.6289 0.3471 0.6957
vn 0.70102 0.1782 0.69052
vn 0.66721 0.27331 0.69291
vn -0.53769 -0.43729 0.72088
vn -0.4894 -0.4948 0.7181
vn -0.44209 -0.53858 0.71728
vn -0.3378 -0.6368 0.6931
vn -0.39148 -0.57607 0.71756
vn -0.2457 -0.64759 0.72129
vn -0.1621 -0.67272 0.72192
vn -0.0014 -0.69516 0.71886
vn -0.0779 -0.68888 0.72068
vn -0.58851 -0.35921 0.72431
vn -0.63561 -0.26331 0.72572
vn 0.71792 0.0755 0.69202
vn 0.7197 -0.0163 0.6941
vn 0.69802 -0.16661 0.69642
vn 0.7121 -0.0959 0.6955
vn -0.49248 0.49058 0.71888
vn -0.5422 0.432 0.7207
vn -0.5903 0.3611 0.7219
vn -0.68912 0.21141 0.69312
vn -0.63167 0.28419 0.72127
vn -0.68416 0.13049 0.71756
vn -0.69346 0.0683 0.71725
vn -0.71739 -0.0743 0.69269
vn -0.69647 0.0055 0.71757
vn -0.6704 -0.1642 0.7236
vn -0.44121 0.53791 0.71832
vn -0.38659 0.57848 0.71827
vn 0.6789 -0.2284 0.6978
vn 0.65828 -0.27669 0.70008
vn 0.62962 -0.32681 0.70482
vn 0.64093 -0.30882 0.70274
vn -0 0.69561 0.71842
vn -0.0684 0.69238 0.71828
vn -0.1357 0.68239 0.71829
vn -0.2751 0.6641 0.6952
vn -0.20051 0.66672 0.71783
vn -0.32971 0.61321 0.71782
vn 0.62324 -0.33752 0.70544
vn 0.61827 -0.34628 0.70557
vn 0.61352 -0.35451 0.70563
vn 0.6088 -0.3626 0.7056
vn -0.3761 0.6021 0.7043
vn -0.3549 0.6179 0.7016
vn -0.31891 0.63951 0.69951
vn -0.27261 0.66132 0.69882
vn 0.60419 -0.3695 0.70599
vn 0.60071 -0.37451 0.70632
vn 0.59833 -0.37772 0.70663
vn 0.59689 -0.3795 0.70689
vn -0.5965 -0.3801 0.7069
vn -0.59518 -0.38349 0.70618
vn 0.5951 -0.3847 0.7056
vn 0.58219 -0.4168 0.69809
vn 0.4289 -0.6337 0.6438
vn -0.5508 -0.4757 0.6858
vn -0.18809 -0.76946 0.61037
vn -0.58883 -0.39912 0.70284
vn -0.5977 -0.3782 0.7069
vn -0.59716 -0.37878 0.70705
vn -0.6001 -0.3757 0.7062
vn -0.60673 -0.36772 0.70474
vn -0.61363 -0.35552 0.70503
vn -0.6156 -0.3483 0.70691
vn -0.59683 -0.37932 0.70704
vn -0.59699 -0.37899 0.70709
vn -0.616 -0.3474 0.707
vn -0.61648 -0.34679 0.70688
vn -0.61722 -0.34561 0.70682
vn -0.61854 -0.34362 0.70664
vn 0.32852 0.63373 0.70033
vn 0.3623 0.6136 0.7016
vn 0.38718 0.59637 0.70316
vn 0.40599 0.58298 0.70378
vn -0.62128 -0.33979 0.70608
vn -0.6255 -0.333 0.7056
vn -0.63082 -0.32361 0.70522
vn -0.63703 -0.31211 0.70483
vn 0.0684 0.69238 0.71828
vn 0.1357 0.68239 0.71829
vn -0.646 -0.296 0.70361
vn -0.65842 -0.27141 0.70202
vn -0.69221 -0.1853 0.69751
vn -0.67411 -0.2357 0.70001
vn 0.49189 0.49189 0.71839
vn 0.44121 0.53791 0.71832
vn 0.38659 0.57848 0.71827
vn 0.2751 0.6641 0.6952
vn 0.32971 0.61321 0.71782
vn 0.20051 0.66672 0.71783
vn 0.53791 0.44121 0.71832
vn 0.57848 0.38659 0.71827
vn -0.70969 -0.1166 0.69479
vn -0.72091 -0.0292 0.69241
vn -0.70057 0.17819 0.69097
vn -0.71948 0.0729 0.69068
vn 0.64269 -0.2662 0.71839
vn 0.66582 -0.20171 0.71833
vn 0.68239 -0.1357 0.71829
vn 0.71881 -0 0.69521
vn 0.69272 -0.0699 0.71782
vn 0.69272 0.0699 0.71782
vn 0.68239 0.1357 0.71829
vn 0.6641 0.2751 0.6952
vn 0.66672 0.20051 0.71783
vn 0.61321 0.32971 0.71782
vn -0.60313 0.38652 0.69774
vn -0.63531 0.3325 0.69701
vn 0.0684 -0.69233 0.71833
vn 0.1357 -0.68239 0.71829
vn 0.2751 -0.6641 0.6952
vn 0.20051 -0.66672 0.71783
vn 0.32971 -0.61321 0.71782
vn 0.38659 -0.57848 0.71827
vn 0.50824 -0.50824 0.69526
vn 0.44042 -0.53922 0.71783
vn 0.53922 -0.44042 0.71783
vn 0.57848 -0.38659 0.71827
vn 0.61348 -0.32819 0.71828
vn -0.66831 0.2665 0.69451
vn 0.43402 0.56672 0.70033
vn 0.47532 0.53582 0.69783
vn 0.51892 0.49402 0.69762
vn -0.11471 0.70454 0.70034
vn -0.1528 0.6959 0.7017
vn -0.0751 0.7088 0.7014
vn -0.0425 0.71036 0.70256
vn -0.0215 0.70879 0.70509
vn -0.2267 0.6769 0.7003
vn -0.1877 0.68771 0.70131
vt 0 0
usemtl mat0
f 1/1/1 2/1/1 3/1/1
f 1/1/1 3/1/1 4/1/1
f 2/1/1 5/1/1 6/1/1
f 2/1/1 6/1/1 3/1/1
f 4/1/1 3/1/1 7/1/1
f 4/1/1 7/1/1 8/1/1
f 3/1/1 6/1/1 9/1/1
f 3/1/1 9/1/1 7/1/1
f 10/1/2 11/1/3 1/1/1
f 10/1/2 1/1/1 12/1/1
f 11/1/3 13/1/4 2/1/1
f 11/1/3 2/1/1 1/1/1
f 13/1/4 14/1/5 5/1/1
f 13/1/4 5/1/1 2/1/1
f 14/1/5 15/1/6 16/1/7
f 14/1/5 16/1/7 5/1/1
f 5/1/1 16/1/7 17/1/8
f 5/1/1 17/1/8 6/1/1
f 6/1/1 17/1/8 18/1/9
f 6/1/1 18/1/9 9/1/1
f 9/1/1 18/1/9 19/1/10
f 9/1/1 19/1/10 20/1/1
f 7/1/1 9/1/1 20/1/1
f 7/1/1 20/1/1 21/1/1
f 8/1/1 7/1/1 21/1/1
f 8/1/1 21/1/1 22/1/1
f 23/1/1 8/1/1 22/1/1
f 23/1/1 22/1/1 24/1/1
f 25/1/1 4/1/1 8/1/1
f 25/1/1 8/1/1 23/1/1
f 12/1/1 1/1/1 4/1/1
f 12/1/1 4/1/1 25/1/1
f 26/1/1 27/1/1 28/1/1
f 26/1/1 28/1/1 29/1/1
f 27/1/1 30/1/1 31/1/1
f 27/1/1 31/1/1 28/1/1
f 29/1/1 28/1/1 32/1/1
f 29/1/1 32/1/1 33/1/1
f 28/1/1 31/1/1 34/1/1
f 28/1/1 34/1/1 32/1/1
f 35/1/1 36/1/1 26/1/1
f 35/1/1 26/1/1 37/1/1
f 36/1/1 38/1/1 27/1/1
f 36/1/1 27/1/1 26/1/1
f 38/1/1 39/1/1 30/1/1
f 38/1/1 30/1/1 27/1/1
f 39/1/1 40/1/1 41/1/1
f 39/1/1 41/1/1 30/1/1
f 30/1/1 41/1/1 42/1/1
f 30/1/1 42/1/1 31/1/1
f 31/1/1 42/1/1 43/1/1
f 31/1/1 43/1/1 34/1/1
f 34/1/1 43/1/1 44/1/11
f 34/1/1 44/1/11 45/1/12
f 32/1/1 34/1/1 45/1/12
f 32/1/1 45/1/12 46/1/13
f 33/1/1 32/1/1 46/1/13
f 33/1/1 46/1/13 47/1/14
f 48/1/1 33/1/1 47/1/14
f 48/1/1 47/1/14 49/1/15
f 50/1/1 29/1/1 33/1/1
f 50/1/1 33/1/1 48/1/1
f 37/1/1 26/1/1 29/1/1
f 37/1/1 29/1/1 50/1/1
f 51/1/1 52/1/1 53/1/1
f 51/1/1 53/1/1 54/1/1
f 55/1/1 56/1/1 53/1/1
f 55/1/1 53/1/1 52/1/1
f 57/1/1 58/1/1 53/1/1
f 57/1/1 53/1/1 56/1/1
f 59/1/1 60/1/1 53/1/1
f 59/1/1 53/1/1 58/1/1
f 61/1/1 62/1/1 53/1/1
f 61/1/1 53/1/1 60/1/1
f 63/1/1 54/1/1 53/1/1
f 63/1/1 53/1/1 62/1/1
f 40/1/1 64/1/1 51/1/1
f 40/1/1 51/1/1 65/1/1
f 64/1/1 66/1/1 52/1/1
f 64/1/1 52/1/1 51/1/1
f 65/1/1 51/1/1 54/1/1
f 65/1/1 54/1/1 67/1/1
f 68/1/16 69/1/17 55/1/1
f 68/1/16 55/1/1 70/1/1
f 69/1/17 71/1/18 56/1/1
f 69/1/17 56/1/1 55/1/1
f 70/1/1 55/1/1 52/1/1
f 70/1/1 52/1/1 66/1/1
f 72/1/19 73/1/1 57/1/1
f 72/1/19 57/1/1 74/1/20
f 73/1/1 75/1/1 58/1/1
f 73/1/1 58/1/1 57/1/1
f 74/1/20 57/1/1 56/1/1
f 74/1/20 56/1/1 71/1/18
f 76/1/21 77/1/22 59/1/1
f 76/1/21 59/1/1 78/1/1
f 77/1/22 79/1/23 60/1/1
f 77/1/22 60/1/1 59/1/1
f 78/1/1 59/1/1 58/1/1
f 78/1/1 58/1/1 75/1/1
f 80/1/24 81/1/25 61/1/1
f 80/1/24 61/1/1 82/1/26
f 81/1/25 83/1/27 62/1/1
f 81/1/25 62/1/1 61/1/1
f 82/1/26 61/1/1 60/1/1
f 82/1/26 60/1/1 79/1/23
f 84/1/28 85/1/1 63/1/1
f 84/1/28 63/1/1 86/1/29
f 85/1/1 67/1/1 54/1/1
f 85/1/1 54/1/1 63/1/1
f 86/1/29 63/1/1 62/1/1
f 86/1/29 62/1/1 83/1/27
f 87/1/1 88/1/1 89/1/1
f 87/1/1 89/1/1 90/1/1
f 91/1/1 92/1/1 89/1/1
f 91/1/1 89/1/1 88/1/1
f 93/1/1 94/1/1 89/1/1
f 93/1/1 89/1/1 92/1/1
f 95/1/1 96/1/1 89/1/1
f 95/1/1 89/1/1 94/1/1
f 97/1/1 98/1/1 89/1/1
f 97/1/1 89/1/1 96/1/1
f 99/1/1 90/1/1 89/1/1
f 99/1/1 89/1/1 98/1/1
f 76/1/21 78/1/1 87/1/1
f 76/1/21 87/1/1 100/1/30
f 78/1/1 75/1/1 88/1/1
f 78/1/1 88/1/1 87/1/1
f 100/1/30 87/1/1 90/1/1
f 100/1/30 90/1/1 101/1/31
f 72/1/19 102/1/32 91/1/1
f 72/1/19 91/1/1 73/1/1
f 102/1/32 103/1/33 92/1/1
f 102/1/32 92/1/1 91/1/1
f 73/1/1 91/1/1 88/1/1
f 73/1/1 88/1/1 75/1/1
f 104/1/34 105/1/1 93/1/1
f 104/1/34 93/1/1 106/1/35
f 105/1/1 107/1/1 94/1/1
f 105/1/1 94/1/1 93/1/1
f 106/1/35 93/1/1 92/1/1
f 106/1/35 92/1/1 103/1/33
f 108/1/36 109/1/37 95/1/1
f 108/1/36 95/1/1 110/1/1
f 109/1/37 111/1/38 96/1/1
f 109/1/37 96/1/1 95/1/1
f 110/1/1 95/1/1 94/1/1
f 110/1/1 94/1/1 107/1/1
f 112/1/39 113/1/40 97/1/1
f 112/1/39 97/1/1 114/1/41
f 113/1/40 115/1/42 98/1/1
f 113/1/40 98/1/1 97/1/1
f 114/1/41 97/1/1 96/1/1
f 114/1/41 96/1/1 111/1/38
f 116/1/43 117/1/44 99/1/1
f 116/1/43 99/1/1 118/1/45
f 117/1/44 101/1/31 90/1/1
f 117/1/44 90/1/1 99/1/1
f 118/1/45 99/1/1 98/1/1
f 118/1/45 98/1/1 115/1/42
f 119/1/1 120/1/1 121/1/1
f 119/1/1 121/1/1 122/1/1
f 123/1/1 124/1/1 121/1/1
f 123/1/1 121/1/1 120/1/1
f 125/1/1 126/1/1 121/1/1
f 125/1/1 121/1/1 124/1/1
f 127/1/1 128/1/1 121/1/1
f 127/1/1 121/1/1 126/1/1
f 129/1/1 130/1/1 121/1/1
f 129/1/1 121/1/1 128/1/1
f 131/1/1 122/1/1 121/1/1
f 131/1/1 121/1/1 130/1/1
f 108/1/36 110/1/1 119/1/1
f 108/1/36 119/1/1 132/1/46
f 110/1/1 107/1/1 120/1/1
f 110/1/1 120/1/1 119/1/1
f 132/1/46 119/1/1 122/1/1
f 132/1/46 122/1/1 133/1/47
f 104/1/34 134/1/48 123/1/1
f 104/1/34 123/1/1 105/1/1
f 134/1/48 135/1/49 124/1/1
f 134/1/48 124/1/1 123/1/1
f 105/1/1 123/1/1 120/1/1
f 105/1/1 120/1/1 107/1/1
f 136/1/50 137/1/1 125/1/1
f 136/1/50 125/1/1 138/1/51
f 137/1/1 139/1/1 126/1/1
f 137/1/1 126/1/1 125/1/1
f 138/1/51 125/1/1 124/1/1
f 138/1/51 124/1/1 135/1/49
f 140/1/1 141/1/1 127/1/1
f 140/1/1 127/1/1 142/1/1
f 141/1/1 143/1/1 128/1/1
f 141/1/1 128/1/1 127/1/1
f 142/1/1 127/1/1 126/1/1
f 142/1/1 126/1/1 139/1/1
f 144/1/52 145/1/53 129/1/1
f 144/1/52 129/1/1 146/1/1
f 145/1/53 147/1/54 130/1/1
f 145/1/53 130/1/1 129/1/1
f 146/1/1 129/1/1 128/1/1
f 146/1/1 128/1/1 143/1/1
f 148/1/55 149/1/56 131/1/1
f 148/1/55 131/1/1 150/1/57
f 149/1/56 133/1/47 122/1/1
f 149/1/56 122/1/1 131/1/1
f 150/1/57 131/1/1 130/1/1
f 150/1/57 130/1/1 147/1/54
f 151/1/1 152/1/1 153/1/1
f 151/1/1 153/1/1 154/1/1
f 152/1/1 155/1/1 156/1/1
f 152/1/1 156/1/1 153/1/1
f 154/1/1 153/1/1 157/1/1
f 154/1/1 157/1/1 158/1/1
f 153/1/1 156/1/1 159/1/1
f 153/1/1 159/1/1 157/1/1
f 160/1/1 161/1/1 151/1/1
f 160/1/1 151/1/1 162/1/1
f 161/1/1 163/1/1 152/1/1
f 161/1/1 152/1/1 151/1/1
f 163/1/1 164/1/1 155/1/1
f 163/1/1 155/1/1 152/1/1
f 164/1/1 140/1/1 142/1/1
f 164/1/1 142/1/1 155/1/1
f 155/1/1 142/1/1 139/1/1
f 155/1/1 139/1/1 156/1/1
f 156/1/1 139/1/1 137/1/1
f 156/1/1 137/1/1 159/1/1
f 159/1/1 137/1/1 136/1/50
f 159/1/1 136/1/50 165/1/58
f 157/1/1 159/1/1 165/1/58
f 157/1/1 165/1/58 166/1/59
f 158/1/1 157/1/1 166/1/59
f 158/1/1 166/1/59 167/1/60
f 168/1/1 158/1/1 167/1/60
f 168/1/1 167/1/60 169/1/61
f 170/1/1 154/1/1 158/1/1
f 170/1/1 158/1/1 168/1/1
f 162/1/1 151/1/1 154/1/1
f 162/1/1 154/1/1 170/1/1
f 171/1/1 172/1/1 173/1/1
f 171/1/1 173/1/1 174/1/1
f 172/1/1 175/1/1 176/1/1
f 172/1/1 176/1/1 173/1/1
f 174/1/1 173/1/1 177/1/1
f 174/1/1 177/1/1 178/1/1
f 173/1/1 176/1/1 179/1/1
f 173/1/1 179/1/1 177/1/1
f 24/1/1 180/1/1 171/1/1
f 24/1/1 171/1/1 181/1/1
f 180/1/1 182/1/1 172/1/1
f 180/1/1 172/1/1 171/1/1
f 182/1/1 183/1/1 175/1/1
f 182/1/1 175/1/1 172/1/1
f 183/1/1 35/1/1 37/1/1
f 183/1/1 37/1/1 175/1/1
f 175/1/1 37/1/1 50/1/1
f 175/1/1 50/1/1 176/1/1
f 176/1/1 50/1/1 48/1/1
f 176/1/1 48/1/1 179/1/1
f 179/1/1 48/1/1 49/1/15
f 179/1/1 49/1/15 184/1/62
f 177/1/1 179/1/1 184/1/62
f 177/1/1 184/1/62 185/1/63
f 178/1/1 177/1/1 185/1/63
f 178/1/1 185/1/63 186/1/64
f 187/1/1 178/1/1 186/1/64
f 187/1/1 186/1/64 188/1/65
f 189/1/1 174/1/1 178/1/1
f 189/1/1 178/1/1 187/1/1
f 181/1/1 171/1/1 174/1/1
f 181/1/1 174/1/1 189/1/1
f 190/1/1 191/1/1 192/1/1
f 190/1/1 192/1/1 193/1/1
f 191/1/1 194/1/1 195/1/1
f 191/1/1 195/1/1 192/1/1
f 193/1/1 192/1/1 196/1/1
f 193/1/1 196/1/1 197/1/1
f 192/1/1 195/1/1 198/1/1
f 192/1/1 198/1/1 196/1/1
f 199/1/1 200/1/1 190/1/1
f 199/1/1 190/1/1 201/1/1
f 200/1/1 202/1/1 191/1/1
f 200/1/1 191/1/1 190/1/1
f 202/1/1 203/1/1 194/1/1
f 202/1/1 194/1/1 191/1/1
f 203/1/1 160/1/1 162/1/1
f 203/1/1 162/1/1 194/1/1
f 194/1/1 162/1/1 170/1/1
f 194/1/1 170/1/1 195/1/1
f 195/1/1 170/1/1 168/1/1
f 195/1/1 168/1/1 198/1/1
f 198/1/1 168/1/1 169/1/61
f 198/1/1 169/1/61 204/1/66
f 196/1/1 198/1/1 204/1/66
f 196/1/1 204/1/66 205/1/67
f 197/1/1 196/1/1 205/1/67
f 197/1/1 205/1/67 206/1/68
f 207/1/1 197/1/1 206/1/68
f 207/1/1 206/1/68 208/1/69
f 209/1/1 193/1/1 197/1/1
f 209/1/1 197/1/1 207/1/1
f 201/1/1 190/1/1 193/1/1
f 201/1/1 193/1/1 209/1/1
f 210/1/1 211/1/1 212/1/1
f 210/1/1 212/1/1 213/1/1
f 211/1/1 214/1/1 215/1/1
f 211/1/1 215/1/1 212/1/1
f 213/1/1 212/1/1 216/1/1
f 213/1/1 216/1/1 217/1/1
f 212/1/1 215/1/1 218/1/1
f 212/1/1 218/1/1 216/1/1
f 219/1/70 220/1/1 210/1/1
f 219/1/70 210/1/1 221/1/71
f 220/1/1 222/1/1 211/1/1
f 220/1/1 211/1/1 210/1/1
f 222/1/1 223/1/1 214/1/1
f 222/1/1 214/1/1 211/1/1
f 223/1/1 199/1/1 201/1/1
f 223/1/1 201/1/1 214/1/1
f 214/1/1 201/1/1 209/1/1
f 214/1/1 209/1/1 215/1/1
f 215/1/1 209/1/1 207/1/1
f 215/1/1 207/1/1 218/1/1
f 218/1/1 207/1/1 208/1/69
f 218/1/1 208/1/69 224/1/72
f 216/1/1 218/1/1 224/1/72
f 216/1/1 224/1/72 225/1/73
f 217/1/1 216/1/1 225/1/73
f 217/1/1 225/1/73 226/1/74
f 227/1/75 217/1/1 226/1/74
f 227/1/75 226/1/74 228/1/76
f 229/1/77 213/1/1 217/1/1
f 229/1/77 217/1/1 227/1/75
f 221/1/71 210/1/1 213/1/1
f 221/1/71 213/1/1 229/1/77
f 230/1/1 231/1/1 232/1/1
f 230/1/1 232/1/1 233/1/1
f 231/1/1 234/1/1 235/1/1
f 231/1/1 235/1/1 232/1/1
f 233/1/1 232/1/1 236/1/1
f 233/1/1 236/1/1 237/1/1
f 232/1/1 235/1/1 238/1/1
f 232/1/1 238/1/1 236/1/1
f 239/1/78 240/1/79 230/1/1
f 239/1/78 230/1/1 241/1/80
f 240/1/79 242/1/81 231/1/1
f 240/1/79 231/1/1 230/1/1
f 242/1/81 243/1/82 234/1/1
f 242/1/81 234/1/1 231/1/1
f 243/1/82 244/1/83 245/1/1
f 243/1/82 245/1/1 234/1/1
f 234/1/1 245/1/1 246/1/1
f 234/1/1 246/1/1 235/1/1
f 235/1/1 246/1/1 247/1/1
f 235/1/1 247/1/1 238/1/1
f 238/1/1 247/1/1 199/1/1
f 238/1/1 199/1/1 223/1/1
f 236/1/1 238/1/1 223/1/1
f 236/1/1 223/1/1 222/1/1
f 237/1/1 236/1/1 222/1/1
f 237/1/1 222/1/1 220/1/1
f 248/1/84 237/1/1 220/1/1
f 248/1/84 220/1/1 219/1/70
f 249/1/85 233/1/1 237/1/1
f 249/1/85 237/1/1 248/1/84
f 241/1/80 230/1/1 233/1/1
f 241/1/80 233/1/1 249/1/85
f 250/1/1 251/1/1 252/1/1
f 250/1/1 252/1/1 253/1/1
f 251/1/1 254/1/1 255/1/1
f 251/1/1 255/1/1 252/1/1
f 253/1/1 252/1/1 256/1/1
f 253/1/1 256/1/1 257/1/1
f 252/1/1 255/1/1 258/1/1
f 252/1/1 258/1/1 256/1/1
f 244/1/83 259/1/86 250/1/1
f 244/1/83 250/1/1 245/1/1
f 259/1/86 260/1/87 251/1/1
f 259/1/86 251/1/1 250/1/1
f 260/1/87 261/1/88 254/1/1
f 260/1/87 254/1/1 251/1/1
f 261/1/88 262/1/89 263/1/1
f 261/1/88 263/1/1 254/1/1
f 254/1/1 263/1/1 264/1/1
f 254/1/1 264/1/1 255/1/1
f 255/1/1 264/1/1 265/1/1
f 255/1/1 265/1/1 258/1/1
f 258/1/1 265/1/1 160/1/1
f 258/1/1 160/1/1 203/1/1
f 256/1/1 258/1/1 203/1/1
f 256/1/1 203/1/1 202/1/1
f 257/1/1 256/1/1 202/1/1
f 257/1/1 202/1/1 200/1/1
f 247/1/1 257/1/1 200/1/1
f 247/1/1 200/1/1 199/1/1
f 246/1/1 253/1/1 257/1/1
f 246/1/1 257/1/1 247/1/1
f 245/1/1 250/1/1 253/1/1
f 245/1/1 253/1/1 246/1/1
f 266/1/1 267/1/1 268/1/1
f 266/1/1 268/1/1 269/1/1
f 267/1/1 270/1/1 271/1/1
f 267/1/1 271/1/1 268/1/1
f 269/1/1 268/1/1 272/1/1
f 269/1/1 272/1/1 273/1/1
f 268/1/1 271/1/1 274/1/1
f 268/1/1 274/1/1 272/1/1
f 19/1/10 275/1/90 266/1/1
f 19/1/10 266/1/1 20/1/1
f 275/1/90 276/1/91 267/1/1
f 275/1/90 267/1/1 266/1/1
f 276/1/91 277/1/92 270/1/1
f 276/1/91 270/1/1 267/1/1
f 277/1/92 278/1/93 279/1/1
f 277/1/92 279/1/1 270/1/1
f 270/1/1 279/1/1 280/1/1
f 270/1/1 280/1/1 271/1/1
f 271/1/1 280/1/1 281/1/1
f 271/1/1 281/1/1 274/1/1
f 274/1/1 281/1/1 35/1/1
f 274/1/1 35/1/1 183/1/1
f 272/1/1 274/1/1 183/1/1
f 272/1/1 183/1/1 182/1/1
f 273/1/1 272/1/1 182/1/1
f 273/1/1 182/1/1 180/1/1
f 22/1/1 273/1/1 180/1/1
f 22/1/1 180/1/1 24/1/1
f 21/1/1 269/1/1 273/1/1
f 21/1/1 273/1/1 22/1/1
f 20/1/1 266/1/1 269/1/1
f 20/1/1 269/1/1 21/1/1
f 282/1/1 283/1/1 284/1/1
f 282/1/1 284/1/1 285/1/1
f 283/1/1 286/1/1 287/1/1
f 283/1/1 287/1/1 284/1/1
f 285/1/1 284/1/1 288/1/1
f 285/1/1 288/1/1 289/1/1
f 284/1/1 287/1/1 290/1/1
f 284/1/1 290/1/1 288/1/1
f 262/1/89 291/1/94 282/1/1
f 262/1/89 282/1/1 263/1/1
f 291/1/94 292/1/95 283/1/1
f 291/1/94 283/1/1 282/1/1
f 292/1/95 293/1/96 286/1/1
f 292/1/95 286/1/1 283/1/1
f 293/1/96 294/1/97 295/1/1
f 293/1/96 295/1/1 286/1/1
f 286/1/1 295/1/1 296/1/1
f 286/1/1 296/1/1 287/1/1
f 287/1/1 296/1/1 297/1/1
f 287/1/1 297/1/1 290/1/1
f 290/1/1 297/1/1 140/1/1
f 290/1/1 140/1/1 164/1/1
f 288/1/1 290/1/1 164/1/1
f 288/1/1 164/1/1 163/1/1
f 289/1/1 288/1/1 163/1/1
f 289/1/1 163/1/1 161/1/1
f 265/1/1 289/1/1 161/1/1
f 265/1/1 161/1/1 160/1/1
f 264/1/1 285/1/1 289/1/1
f 264/1/1 289/1/1 265/1/1
f 263/1/1 282/1/1 285/1/1
f 263/1/1 285/1/1 264/1/1
f 298/1/1 299/1/1 300/1/1
f 298/1/1 300/1/1 301/1/1
f 302/1/1 303/1/1 300/1/1
f 302/1/1 300/1/1 299/1/1
f 304/1/1 305/1/1 300/1/1
f 304/1/1 300/1/1 303/1/1
f 306/1/1 307/1/1 300/1/1
f 306/1/1 300/1/1 305/1/1
f 308/1/1 309/1/1 300/1/1
f 308/1/1 300/1/1 307/1/1
f 310/1/1 301/1/1 300/1/1
f 310/1/1 300/1/1 309/1/1
f 144/1/52 146/1/1 298/1/1
f 144/1/52 298/1/1 311/1/98
f 146/1/1 143/1/1 299/1/1
f 146/1/1 299/1/1 298/1/1
f 311/1/98 298/1/1 301/1/1
f 311/1/98 301/1/1 312/1/99
f 140/1/1 297/1/1 302/1/1
f 140/1/1 302/1/1 141/1/1
f 297/1/1 296/1/1 303/1/1
f 297/1/1 303/1/1 302/1/1
f 141/1/1 302/1/1 299/1/1
f 141/1/1 299/1/1 143/1/1
f 294/1/97 313/1/100 304/1/1
f 294/1/97 304/1/1 295/1/1
f 313/1/100 314/1/101 305/1/1
f 313/1/100 305/1/1 304/1/1
f 295/1/1 304/1/1 303/1/1
f 295/1/1 303/1/1 296/1/1
f 315/1/102 316/1/1 306/1/1
f 315/1/102 306/1/1 317/1/103
f 316/1/1 318/1/1 307/1/1
f 316/1/1 307/1/1 306/1/1
f 317/1/103 306/1/1 305/1/1
f 317/1/103 305/1/1 314/1/101
f 319/1/104 320/1/105 308/1/1
f 319/1/104 308/1/1 321/1/1
f 320/1/105 322/1/106 309/1/1
f 320/1/105 309/1/1 308/1/1
f 321/1/1 308/1/1 307/1/1
f 321/1/1 307/1/1 318/1/1
f 323/1/107 324/1/108 310/1/1
f 323/1/107 310/1/1 325/1/109
f 324/1/108 312/1/99 301/1/1
f 324/1/108 301/1/1 310/1/1
f 325/1/109 310/1/1 309/1/1
f 325/1/109 309/1/1 322/1/106
f 326/1/1 327/1/1 328/1/1
f 326/1/1 328/1/1 329/1/1
f 330/1/1 331/1/1 328/1/1
f 330/1/1 328/1/1 327/1/1
f 332/1/1 333/1/1 328/1/1
f 332/1/1 328/1/1 331/1/1
f 334/1/1 335/1/1 328/1/1
f 334/1/1 328/1/1 333/1/1
f 336/1/1 337/1/1 328/1/1
f 336/1/1 328/1/1 335/1/1
f 338/1/1 329/1/1 328/1/1
f 338/1/1 328/1/1 337/1/1
f 319/1/104 321/1/1 326/1/1
f 319/1/104 326/1/1 339/1/110
f 321/1/1 318/1/1 327/1/1
f 321/1/1 327/1/1 326/1/1
f 339/1/110 326/1/1 329/1/1
f 339/1/110 329/1/1 340/1/111
f 315/1/102 341/1/112 330/1/1
f 315/1/102 330/1/1 316/1/1
f 341/1/112 342/1/113 331/1/1
f 341/1/112 331/1/1 330/1/1
f 316/1/1 330/1/1 327/1/1
f 316/1/1 327/1/1 318/1/1
f 343/1/114 344/1/1 332/1/1
f 343/1/114 332/1/1 345/1/115
f 344/1/1 346/1/1 333/1/1
f 344/1/1 333/1/1 332/1/1
f 345/1/115 332/1/1 331/1/1
f 345/1/115 331/1/1 342/1/113
f 347/1/116 348/1/117 334/1/1
f 347/1/116 334/1/1 349/1/1
f 348/1/117 350/1/118 335/1/1
f 348/1/117 335/1/1 334/1/1
f 349/1/1 334/1/1 333/1/1
f 349/1/1 333/1/1 346/1/1
f 351/1/119 352/1/120 336/1/1
f 351/1/119 336/1/1 353/1/121
f 352/1/120 354/1/122 337/1/1
f 352/1/120 337/1/1 336/1/1
f 353/1/121 336/1/1 335/1/1
f 353/1/121 335/1/1 350/1/118
f 355/1/123 356/1/124 338/1/1
f 355/1/123 338/1/1 357/1/125
f 356/1/124 340/1/111 329/1/1
f 356/1/124 329/1/1 338/1/1
f 357/1/125 338/1/1 337/1/1
f 357/1/125 337/1/1 354/1/122
f 358/1/1 359/1/1 360/1/1
f 358/1/1 360/1/1 361/1/1
f 362/1/1 363/1/1 360/1/1
f 362/1/1 360/1/1 359/1/1
f 364/1/1 365/1/1 360/1/1
f 364/1/1 360/1/1 363/1/1
f 366/1/1 367/1/1 360/1/1
f 366/1/1 360/1/1 365/1/1
f 368/1/1 369/1/1 360/1/1
f 368/1/1 360/1/1 367/1/1
f 370/1/1 371/1/1 360/1/1
f 370/1/1 360/1/1 369/1/1
f 372/1/1 361/1/1 360/1/1
f 372/1/1 360/1/1 371/1/1
f 44/1/11 43/1/1 358/1/1
f 44/1/11 358/1/1 373/1/126
f 43/1/1 42/1/1 359/1/1
f 43/1/1 359/1/1 358/1/1
f 373/1/126 358/1/1 361/1/1
f 373/1/126 361/1/1 374/1/127
f 40/1/1 65/1/1 362/1/1
f 40/1/1 362/1/1 41/1/1
f 65/1/1 67/1/1 363/1/1
f 65/1/1 363/1/1 362/1/1
f 41/1/1 362/1/1 359/1/1
f 41/1/1 359/1/1 42/1/1
f 84/1/28 375/1/128 364/1/1
f 84/1/28 364/1/1 85/1/1
f 375/1/128 376/1/129 365/1/1
f 375/1/128 365/1/1 364/1/1
f 85/1/1 364/1/1 363/1/1
f 85/1/1 363/1/1 67/1/1
f 377/1/130 378/1/131 366/1/1
f 377/1/130 366/1/1 379/1/132
f 378/1/131 380/1/133 367/1/1
f 378/1/131 367/1/1 366/1/1
f 379/1/132 366/1/1 365/1/1
f 379/1/132 365/1/1 376/1/129
f 381/1/134 382/1/135 368/1/1
f 381/1/134 368/1/1 383/1/136
f 382/1/135 384/1/137 369/1/1
f 382/1/135 369/1/1 368/1/1
f 383/1/136 368/1/1 367/1/1
f 383/1/136 367/1/1 380/1/133
f 347/1/116 349/1/1 370/1/1
f 347/1/116 370/1/1 385/1/138
f 349/1/1 346/1/1 371/1/1
f 349/1/1 371/1/1 370/1/1
f 385/1/138 370/1/1 369/1/1
f 385/1/138 369/1/1 384/1/137
f 343/1/114 386/1/139 372/1/1
f 343/1/114 372/1/1 344/1/1
f 386/1/139 374/1/127 361/1/1
f 386/1/139 361/1/1 372/1/1
f 344/1/1 372/1/1 371/1/1
f 344/1/1 371/1/1 346/1/1
f 387/1/1 388/1/1 389/1/1
f 387/1/1 389/1/1 390/1/1
f 388/1/1 391/1/1 392/1/1
f 388/1/1 392/1/1 389/1/1
f 390/1/1 389/1/1 393/1/1
f 390/1/1 393/1/1 394/1/1
f 389/1/1 392/1/1 395/1/1
f 389/1/1 395/1/1 393/1/1
f 278/1/93 396/1/140 387/1/1
f 278/1/93 387/1/1 279/1/1
f 396/1/140 397/1/141 388/1/1
f 396/1/140 388/1/1 387/1/1
f 397/1/141 398/1/142 391/1/1
f 397/1/141 391/1/1 388/1/1
f 398/1/142 68/1/16 70/1/1
f 398/1/142 70/1/1 391/1/1
f 391/1/1 70/1/1 66/1/1
f 391/1/1 66/1/1 392/1/1
f 392/1/1 66/1/1 64/1/1
f 392/1/1 64/1/1 395/1/1
f 395/1/1 64/1/1 40/1/1
f 395/1/1 40/1/1 39/1/1
f 393/1/1 395/1/1 39/1/1
f 393/1/1 39/1/1 38/1/1
f 394/1/1 393/1/1 38/1/1
f 394/1/1 38/1/1 36/1/1
f 281/1/1 394/1/1 36/1/1
f 281/1/1 36/1/1 35/1/1
f 280/1/1 390/1/1 394/1/1
f 280/1/1 394/1/1 281/1/1
f 279/1/1 387/1/1 390/1/1
f 279/1/1 390/1/1 280/1/1
f 399/1/1 400/1/1 401/1/1
f 399/1/1 401/1/1 402/1/1
f 400/1/1 403/1/1 404/1/1
f 400/1/1 404/1/1 401/1/1
f 402/1/1 401/1/1 405/1/1
f 402/1/1 405/1/1 406/1/1
f 401/1/1 404/1/1 407/1/1
f 401/1/1 407/1/1 405/1/1
f 408/1/143 409/1/144 399/1/1
f 408/1/143 399/1/1 410/1/145
f 409/1/144 411/1/146 400/1/1
f 409/1/144 400/1/1 399/1/1
f 411/1/146 412/1/147 403/1/1
f 411/1/146 403/1/1 400/1/1
f 412/1/147 10/1/2 12/1/1
f 412/1/147 12/1/1 403/1/1
f 403/1/1 12/1/1 25/1/1
f 403/1/1 25/1/1 404/1/1
f 404/1/1 25/1/1 23/1/1
f 404/1/1 23/1/1 407/1/1
f 407/1/1 23/1/1 24/1/1
f 407/1/1 24/1/1 181/1/1
f 405/1/1 407/1/1 181/1/1
f 405/1/1 181/1/1 189/1/1
f 406/1/1 405/1/1 189/1/1
f 406/1/1 189/1/1 187/1/1
f 413/1/148 406/1/1 187/1/1
f 413/1/148 187/1/1 188/1/65
f 414/1/149 402/1/1 406/1/1
f 414/1/149 406/1/1 413/1/148
f 410/1/145 399/1/1 402/1/1
f 410/1/145 402/1/1 414/1/149
f 415/1/150 416/1/150 417/1/150
f 415/1/150 417/1/150 418/1/150
f 418/1/150 417/1/150 419/1/150
f 418/1/150 419/1/150 420/1/150
f 416/1/150 421/1/150 422/1/150
f 416/1/150 422/1/150 417/1/150
f 417/1/150 422/1/150 423/1/150
f 417/1/150 423/1/150 419/1/150
f 424/1/151 425/1/150 415/1/150
f 424/1/151 415/1/150 426/1/152
f 426/1/152 415/1/150 418/1/150
f 426/1/152 418/1/150 427/1/153
f 427/1/153 418/1/150 420/1/150
f 427/1/153 420/1/150 428/1/154
f 428/1/154 420/1/150 429/1/155
f 428/1/154 429/1/155 430/1/156
f 420/1/150 419/1/150 431/1/157
f 420/1/150 431/1/157 429/1/155
f 419/1/150 423/1/150 432/1/158
f 419/1/150 432/1/158 431/1/157
f 423/1/150 433/1/150 434/1/159
f 423/1/150 434/1/159 432/1/158
f 422/1/150 435/1/150 433/1/150
f 422/1/150 433/1/150 423/1/150
f 421/1/150 436/1/150 435/1/150
f 421/1/150 435/1/150 422/1/150
f 437/1/150 438/1/150 436/1/150
f 437/1/150 436/1/150 421/1/150
f 439/1/150 437/1/150 421/1/150
f 439/1/150 421/1/150 416/1/150
f 425/1/150 439/1/150 416/1/150
f 425/1/150 416/1/150 415/1/150
f 440/1/150 441/1/150 442/1/150
f 440/1/150 442/1/150 443/1/150
f 443/1/150 442/1/150 444/1/150
f 443/1/150 444/1/150 445/1/150
f 441/1/150 446/1/150 447/1/150
f 441/1/150 447/1/150 442/1/150
f 442/1/150 447/1/150 448/1/150
f 442/1/150 448/1/150 444/1/150
f 449/1/150 450/1/150 440/1/150
f 449/1/150 440/1/150 451/1/150
f 451/1/150 440/1/150 443/1/150
f 451/1/150 443/1/150 452/1/150
f 452/1/150 443/1/150 445/1/150
f 452/1/150 445/1/150 453/1/150
f 453/1/150 445/1/150 454/1/150
f 453/1/150 454/1/150 455/1/150
f 445/1/150 444/1/150 456/1/150
f 445/1/150 456/1/150 454/1/150
f 444/1/150 448/1/150 457/1/150
f 444/1/150 457/1/150 456/1/150
f 448/1/150 458/1/160 459/1/161
f 448/1/150 459/1/161 457/1/150
f 447/1/150 460/1/162 458/1/160
f 447/1/150 458/1/160 448/1/150
f 446/1/150 461/1/163 460/1/162
f 446/1/150 460/1/162 447/1/150
f 462/1/150 463/1/164 461/1/163
f 462/1/150 461/1/163 446/1/150
f 464/1/150 462/1/150 446/1/150
f 464/1/150 446/1/150 441/1/150
f 450/1/150 464/1/150 441/1/150
f 450/1/150 441/1/150 440/1/150
f 465/1/150 466/1/150 467/1/150
f 465/1/150 467/1/150 468/1/150
f 469/1/150 468/1/150 467/1/150
f 469/1/150 467/1/150 470/1/150
f 471/1/150 470/1/150 467/1/150
f 471/1/150 467/1/150 472/1/150
f 473/1/150 472/1/150 467/1/150
f 473/1/150 467/1/150 474/1/150
f 475/1/150 474/1/150 467/1/150
f 475/1/150 467/1/150 476/1/150
f 477/1/150 476/1/150 467/1/150
f 477/1/150 467/1/150 466/1/150
f 455/1/150 478/1/150 465/1/150
f 455/1/150 465/1/150 479/1/150
f 479/1/150 465/1/150 468/1/150
f 479/1/150 468/1/150 480/1/150
f 478/1/150 481/1/150 466/1/150
f 478/1/150 466/1/150 465/1/150
f 482/1/165 483/1/150 469/1/150
f 482/1/165 469/1/150 484/1/166
f 484/1/166 469/1/150 470/1/150
f 484/1/166 470/1/150 485/1/167
f 483/1/150 480/1/150 468/1/150
f 483/1/150 468/1/150 469/1/150
f 486/1/168 487/1/169 471/1/150
f 486/1/168 471/1/150 488/1/150
f 488/1/150 471/1/150 472/1/150
f 488/1/150 472/1/150 489/1/150
f 487/1/169 485/1/167 470/1/150
f 487/1/169 470/1/150 471/1/150
f 490/1/170 491/1/150 473/1/150
f 490/1/170 473/1/150 492/1/171
f 492/1/171 473/1/150 474/1/150
f 492/1/171 474/1/150 493/1/172
f 491/1/150 489/1/150 472/1/150
f 491/1/150 472/1/150 473/1/150
f 494/1/173 495/1/174 475/1/150
f 494/1/173 475/1/150 496/1/175
f 496/1/175 475/1/150 476/1/150
f 496/1/175 476/1/150 497/1/176
f 495/1/174 493/1/172 474/1/150
f 495/1/174 474/1/150 475/1/150
f 498/1/177 499/1/178 477/1/150
f 498/1/177 477/1/150 500/1/150
f 500/1/150 477/1/150 466/1/150
f 500/1/150 466/1/150 481/1/150
f 499/1/178 497/1/176 476/1/150
f 499/1/178 476/1/150 477/1/150
f 501/1/150 502/1/150 503/1/150
f 501/1/150 503/1/150 504/1/150
f 505/1/150 504/1/150 503/1/150
f 505/1/150 503/1/150 506/1/150
f 507/1/150 506/1/150 503/1/150
f 507/1/150 503/1/150 508/1/150
f 509/1/150 508/1/150 503/1/150
f 509/1/150 503/1/150 510/1/150
f 511/1/150 510/1/150 503/1/150
f 511/1/150 503/1/150 512/1/150
f 513/1/150 512/1/150 503/1/150
f 513/1/150 503/1/150 502/1/150
f 490/1/170 514/1/179 501/1/150
f 490/1/170 501/1/150 491/1/150
f 491/1/150 501/1/150 504/1/150
f 491/1/150 504/1/150 489/1/150
f 514/1/179 515/1/180 502/1/150
f 514/1/179 502/1/150 501/1/150
f 486/1/168 488/1/150 505/1/150
f 486/1/168 505/1/150 516/1/181
f 516/1/181 505/1/150 506/1/150
f 516/1/181 506/1/150 517/1/182
f 488/1/150 489/1/150 504/1/150
f 488/1/150 504/1/150 505/1/150
f 518/1/183 519/1/184 507/1/150
f 518/1/183 507/1/150 520/1/150
f 520/1/150 507/1/150 508/1/150
f 520/1/150 508/1/150 521/1/150
f 519/1/184 517/1/182 506/1/150
f 519/1/184 506/1/150 507/1/150
f 522/1/185 523/1/150 509/1/150
f 522/1/185 509/1/150 524/1/186
f 524/1/186 509/1/150 510/1/150
f 524/1/186 510/1/150 525/1/187
f 523/1/150 521/1/150 508/1/150
f 523/1/150 508/1/150 509/1/150
f 526/1/188 527/1/189 511/1/150
f 526/1/188 511/1/150 528/1/190
f 528/1/190 511/1/150 512/1/150
f 528/1/190 512/1/150 529/1/191
f 527/1/189 525/1/187 510/1/150
f 527/1/189 510/1/150 511/1/150
f 530/1/192 531/1/193 513/1/150
f 530/1/192 513/1/150 532/1/194
f 532/1/194 513/1/150 502/1/150
f 532/1/194 502/1/150 515/1/180
f 531/1/193 529/1/191 512/1/150
f 531/1/193 512/1/150 513/1/150
f 533/1/150 534/1/150 535/1/150
f 533/1/150 535/1/150 536/1/150
f 537/1/150 536/1/150 535/1/150
f 537/1/150 535/1/150 538/1/150
f 539/1/150 538/1/150 535/1/150
f 539/1/150 535/1/150 540/1/150
f 541/1/150 540/1/150 535/1/150
f 541/1/150 535/1/150 542/1/150
f 543/1/150 542/1/150 535/1/150
f 543/1/150 535/1/150 544/1/150
f 545/1/150 544/1/150 535/1/150
f 545/1/150 535/1/150 534/1/150
f 522/1/185 546/1/195 533/1/150
f 522/1/185 533/1/150 523/1/150
f 523/1/150 533/1/150 536/1/150
f 523/1/150 536/1/150 521/1/150
f 546/1/195 547/1/196 534/1/150
f 546/1/195 534/1/150 533/1/150
f 518/1/183 520/1/150 537/1/150
f 518/1/183 537/1/150 548/1/197
f 548/1/197 537/1/150 538/1/150
f 548/1/197 538/1/150 549/1/198
f 520/1/150 521/1/150 536/1/150
f 520/1/150 536/1/150 537/1/150
f 550/1/199 551/1/200 539/1/150
f 550/1/199 539/1/150 552/1/150
f 552/1/150 539/1/150 540/1/150
f 552/1/150 540/1/150 553/1/150
f 551/1/200 549/1/198 538/1/150
f 551/1/200 538/1/150 539/1/150
f 554/1/150 555/1/150 541/1/150
f 554/1/150 541/1/150 556/1/150
f 556/1/150 541/1/150 542/1/150
f 556/1/150 542/1/150 557/1/150
f 555/1/150 553/1/150 540/1/150
f 555/1/150 540/1/150 541/1/150
f 558/1/201 559/1/150 543/1/150
f 558/1/201 543/1/150 560/1/202
f 560/1/202 543/1/150 544/1/150
f 560/1/202 544/1/150 561/1/203
f 559/1/150 557/1/150 542/1/150
f 559/1/150 542/1/150 543/1/150
f 562/1/204 563/1/205 545/1/150
f 562/1/204 545/1/150 564/1/206
f 564/1/206 545/1/150 534/1/150
f 564/1/206 534/1/150 547/1/196
f 563/1/205 561/1/203 544/1/150
f 563/1/205 544/1/150 545/1/150
f 565/1/150 566/1/150 567/1/150
f 565/1/150 567/1/150 568/1/150
f 568/1/150 567/1/150 569/1/150
f 568/1/150 569/1/150 570/1/150
f 566/1/150 571/1/150 572/1/150
f 566/1/150 572/1/150 567/1/150
f 567/1/150 572/1/150 573/1/150
f 567/1/150 573/1/150 569/1/150
f 574/1/150 575/1/150 565/1/150
f 574/1/150 565/1/150 576/1/150
f 576/1/150 565/1/150 568/1/150
f 576/1/150 568/1/150 577/1/150
f 577/1/150 568/1/150 570/1/150
f 577/1/150 570/1/150 578/1/150
f 578/1/150 570/1/150 555/1/150
f 578/1/150 555/1/150 554/1/150
f 570/1/150 569/1/150 553/1/150
f 570/1/150 553/1/150 555/1/150
f 569/1/150 573/1/150 552/1/150
f 569/1/150 552/1/150 553/1/150
f 573/1/150 579/1/207 550/1/199
f 573/1/150 550/1/199 552/1/150
f 572/1/150 580/1/208 579/1/207
f 572/1/150 579/1/207 573/1/150
f 571/1/150 581/1/209 580/1/208
f 571/1/150 580/1/208 572/1/150
f 582/1/150 583/1/210 581/1/209
f 582/1/150 581/1/209 571/1/150
f 584/1/150 582/1/150 571/1/150
f 584/1/150 571/1/150 566/1/150
f 575/1/150 584/1/150 566/1/150
f 575/1/150 566/1/150 565/1/150
f 585/1/150 586/1/150 587/1/150
f 585/1/150 587/1/150 588/1/150
f 588/1/150 587/1/150 589/1/150
f 588/1/150 589/1/150 590/1/150
f 586/1/150 591/1/150 592/1/150
f 586/1/150 592/1/150 587/1/150
f 587/1/150 592/1/150 593/1/150
f 587/1/150 593/1/150 589/1/150
f 438/1/150 594/1/150 585/1/150
f 438/1/150 585/1/150 595/1/150
f 595/1/150 585/1/150 588/1/150
f 595/1/150 588/1/150 596/1/150
f 596/1/150 588/1/150 590/1/150
f 596/1/150 590/1/150 597/1/150
f 597/1/150 590/1/150 450/1/150
f 597/1/150 450/1/150 449/1/150
f 590/1/150 589/1/150 464/1/150
f 590/1/150 464/1/150 450/1/150
f 589/1/150 593/1/150 462/1/150
f 589/1/150 462/1/150 464/1/150
f 593/1/150 598/1/211 463/1/164
f 593/1/150 463/1/164 462/1/150
f 592/1/150 599/1/212 598/1/211
f 592/1/150 598/1/211 593/1/150
f 591/1/150 600/1/213 599/1/212
f 591/1/150 599/1/212 592/1/150
f 601/1/150 602/1/214 600/1/213
f 601/1/150 600/1/213 591/1/150
f 603/1/150 601/1/150 591/1/150
f 603/1/150 591/1/150 586/1/150
f 594/1/150 603/1/150 586/1/150
f 594/1/150 586/1/150 585/1/150
f 604/1/150 605/1/150 606/1/150
f 604/1/150 606/1/150 607/1/150
f 607/1/150 606/1/150 608/1/150
f 607/1/150 608/1/150 609/1/150
f 605/1/150 610/1/150 611/1/150
f 605/1/150 611/1/150 606/1/150
f 606/1/150 611/1/150 612/1/150
f 606/1/150 612/1/150 608/1/150
f 613/1/150 614/1/150 604/1/150
f 613/1/150 604/1/150 615/1/150
f 615/1/150 604/1/150 607/1/150
f 615/1/150 607/1/150 616/1/150
f 616/1/150 607/1/150 609/1/150
f 616/1/150 609/1/150 617/1/150
f 617/1/150 609/1/150 575/1/150
f 617/1/150 575/1/150 574/1/150
f 609/1/150 608/1/150 584/1/150
f 609/1/150 584/1/150 575/1/150
f 608/1/150 612/1/150 582/1/150
f 608/1/150 582/1/150 584/1/150
f 612/1/150 618/1/215 583/1/210
f 612/1/150 583/1/210 582/1/150
f 611/1/150 619/1/216 618/1/215
f 611/1/150 618/1/215 612/1/150
f 610/1/150 620/1/217 619/1/216
f 610/1/150 619/1/216 611/1/150
f 621/1/150 622/1/218 620/1/217
f 621/1/150 620/1/217 610/1/150
f 623/1/150 621/1/150 610/1/150
f 623/1/150 610/1/150 605/1/150
f 614/1/150 623/1/150 605/1/150
f 614/1/150 605/1/150 604/1/150
f 624/1/150 625/1/150 626/1/150
f 624/1/150 626/1/150 627/1/150
f 627/1/150 626/1/150 628/1/150
f 627/1/150 628/1/150 629/1/150
f 625/1/150 630/1/150 631/1/150
f 625/1/150 631/1/150 626/1/150
f 626/1/150 631/1/150 632/1/150
f 626/1/150 632/1/150 628/1/150
f 633/1/219 634/1/220 624/1/150
f 633/1/219 624/1/150 635/1/150
f 635/1/150 624/1/150 627/1/150
f 635/1/150 627/1/150 636/1/150
f 636/1/150 627/1/150 629/1/150
f 636/1/150 629/1/150 637/1/150
f 637/1/150 629/1/150 614/1/150
f 637/1/150 614/1/150 613/1/150
f 629/1/150 628/1/150 623/1/150
f 629/1/150 623/1/150 614/1/150
f 628/1/150 632/1/150 621/1/150
f 628/1/150 621/1/150 623/1/150
f 632/1/150 638/1/221 622/1/218
f 632/1/150 622/1/218 621/1/150
f 631/1/150 639/1/222 638/1/221
f 631/1/150 638/1/221 632/1/150
f 630/1/150 640/1/223 639/1/222
f 630/1/150 639/1/222 631/1/150
f 641/1/224 642/1/225 640/1/223
f 641/1/224 640/1/223 630/1/150
f 643/1/226 641/1/224 630/1/150
f 643/1/226 630/1/150 625/1/150
f 634/1/220 643/1/226 625/1/150
f 634/1/220 625/1/150 624/1/150
f 644/1/150 645/1/150 646/1/150
f 644/1/150 646/1/150 647/1/150
f 647/1/150 646/1/150 648/1/150
f 647/1/150 648/1/150 649/1/150
f 645/1/150 650/1/150 651/1/150
f 645/1/150 651/1/150 646/1/150
f 646/1/150 651/1/150 652/1/150
f 646/1/150 652/1/150 648/1/150
f 653/1/227 654/1/228 644/1/150
f 653/1/227 644/1/150 655/1/229
f 655/1/229 644/1/150 647/1/150
f 655/1/229 647/1/150 656/1/230
f 656/1/230 647/1/150 649/1/150
f 656/1/230 649/1/150 657/1/231
f 657/1/231 649/1/150 658/1/150
f 657/1/231 658/1/150 659/1/232
f 649/1/150 648/1/150 660/1/150
f 649/1/150 660/1/150 658/1/150
f 648/1/150 652/1/150 661/1/150
f 648/1/150 661/1/150 660/1/150
f 652/1/150 637/1/150 613/1/150
f 652/1/150 613/1/150 661/1/150
f 651/1/150 636/1/150 637/1/150
f 651/1/150 637/1/150 652/1/150
f 650/1/150 635/1/150 636/1/150
f 650/1/150 636/1/150 651/1/150
f 662/1/233 633/1/219 635/1/150
f 662/1/233 635/1/150 650/1/150
f 663/1/234 662/1/233 650/1/150
f 663/1/234 650/1/150 645/1/150
f 654/1/228 663/1/234 645/1/150
f 654/1/228 645/1/150 644/1/150
f 664/1/150 665/1/150 666/1/150
f 664/1/150 666/1/150 667/1/150
f 667/1/150 666/1/150 668/1/150
f 667/1/150 668/1/150 669/1/150
f 665/1/150 670/1/150 671/1/150
f 665/1/150 671/1/150 666/1/150
f 666/1/150 671/1/150 672/1/150
f 666/1/150 672/1/150 668/1/150
f 659/1/232 658/1/150 664/1/150
f 659/1/232 664/1/150 673/1/235
f 673/1/235 664/1/150 667/1/150
f 673/1/235 667/1/150 674/1/236
f 674/1/236 667/1/150 669/1/150
f 674/1/236 669/1/150 675/1/237
f 675/1/237 669/1/150 676/1/150
f 675/1/237 676/1/150 677/1/238
f 669/1/150 668/1/150 678/1/150
f 669/1/150 678/1/150 676/1/150
f 668/1/150 672/1/150 679/1/150
f 668/1/150 679/1/150 678/1/150
f 672/1/150 617/1/150 574/1/150
f 672/1/150 574/1/150 679/1/150
f 671/1/150 616/1/150 617/1/150
f 671/1/150 617/1/150 672/1/150
f 670/1/150 615/1/150 616/1/150
f 670/1/150 616/1/150 671/1/150
f 661/1/150 613/1/150 615/1/150
f 661/1/150 615/1/150 670/1/150
f 660/1/150 661/1/150 670/1/150
f 660/1/150 670/1/150 665/1/150
f 658/1/150 660/1/150 665/1/150
f 658/1/150 665/1/150 664/1/150
f 680/1/150 681/1/150 682/1/150
f 680/1/150 682/1/150 683/1/150
f 683/1/150 682/1/150 684/1/150
f 683/1/150 684/1/150 685/1/150
f 681/1/150 686/1/150 687/1/150
f 681/1/150 687/1/150 682/1/150
f 682/1/150 687/1/150 688/1/150
f 682/1/150 688/1/150 684/1/150
f 434/1/159 433/1/150 680/1/150
f 434/1/159 680/1/150 689/1/239
f 689/1/239 680/1/150 683/1/150
f 689/1/239 683/1/150 690/1/240
f 690/1/240 683/1/150 685/1/150
f 690/1/240 685/1/150 691/1/241
f 691/1/241 685/1/150 692/1/150
f 691/1/241 692/1/150 693/1/242
f 685/1/150 684/1/150 694/1/150
f 685/1/150 694/1/150 692/1/150
f 684/1/150 688/1/150 695/1/150
f 684/1/150 695/1/150 694/1/150
f 688/1/150 597/1/150 449/1/150
f 688/1/150 449/1/150 695/1/150
f 687/1/150 596/1/150 597/1/150
f 687/1/150 597/1/150 688/1/150
f 686/1/150 595/1/150 596/1/150
f 686/1/150 596/1/150 687/1/150
f 436/1/150 438/1/150 595/1/150
f 436/1/150 595/1/150 686/1/150
f 435/1/150 436/1/150 686/1/150
f 435/1/150 686/1/150 681/1/150
f 433/1/150 435/1/150 681/1/150
f 433/1/150 681/1/150 680/1/150
f 696/1/150 697/1/150 698/1/150
f 696/1/150 698/1/150 699/1/150
f 699/1/150 698/1/150 700/1/150
f 699/1/150 700/1/150 701/1/150
f 697/1/150 702/1/150 703/1/150
f 697/1/150 703/1/150 698/1/150
f 698/1/150 703/1/150 704/1/150
f 698/1/150 704/1/150 700/1/150
f 677/1/238 676/1/150 696/1/150
f 677/1/238 696/1/150 705/1/243
f 705/1/243 696/1/150 699/1/150
f 705/1/243 699/1/150 706/1/244
f 706/1/244 699/1/150 701/1/150
f 706/1/244 701/1/150 707/1/245
f 707/1/245 701/1/150 708/1/150
f 707/1/245 708/1/150 709/1/246
f 701/1/150 700/1/150 710/1/150
f 701/1/150 710/1/150 708/1/150
f 700/1/150 704/1/150 711/1/150
f 700/1/150 711/1/150 710/1/150
f 704/1/150 578/1/150 554/1/150
f 704/1/150 554/1/150 711/1/150
f 703/1/150 577/1/150 578/1/150
f 703/1/150 578/1/150 704/1/150
f 702/1/150 576/1/150 577/1/150
f 702/1/150 577/1/150 703/1/150
f 679/1/150 574/1/150 576/1/150
f 679/1/150 576/1/150 702/1/150
f 678/1/150 679/1/150 702/1/150
f 678/1/150 702/1/150 697/1/150
f 676/1/150 678/1/150 697/1/150
f 676/1/150 697/1/150 696/1/150
f 712/1/150 713/1/150 714/1/150
f 712/1/150 714/1/150 715/1/150
f 716/1/150 715/1/150 714/1/150
f 716/1/150 714/1/150 717/1/150
f 718/1/150 717/1/150 714/1/150
f 718/1/150 714/1/150 719/1/150
f 720/1/150 719/1/150 714/1/150
f 720/1/150 714/1/150 721/1/150
f 722/1/150 721/1/150 714/1/150
f 722/1/150 714/1/150 723/1/150
f 724/1/150 723/1/150 714/1/150
f 724/1/150 714/1/150 713/1/150
f 558/1/201 725/1/247 712/1/150
f 558/1/201 712/1/150 559/1/150
f 559/1/150 712/1/150 715/1/150
f 559/1/150 715/1/150 557/1/150
f 725/1/247 726/1/248 713/1/150
f 725/1/247 713/1/150 712/1/150
f 554/1/150 556/1/150 716/1/150
f 554/1/150 716/1/150 711/1/150
f 711/1/150 716/1/150 717/1/150
f 711/1/150 717/1/150 710/1/150
f 556/1/150 557/1/150 715/1/150
f 556/1/150 715/1/150 716/1/150
f 709/1/246 708/1/150 718/1/150
f 709/1/246 718/1/150 727/1/249
f 727/1/249 718/1/150 719/1/150
f 727/1/249 719/1/150 728/1/250
f 708/1/150 710/1/150 717/1/150
f 708/1/150 717/1/150 718/1/150
f 729/1/251 730/1/252 720/1/150
f 729/1/251 720/1/150 731/1/150
f 731/1/150 720/1/150 721/1/150
f 731/1/150 721/1/150 732/1/150
f 730/1/252 728/1/250 719/1/150
f 730/1/252 719/1/150 720/1/150
f 733/1/253 734/1/150 722/1/150
f 733/1/253 722/1/150 735/1/254
f 735/1/254 722/1/150 723/1/150
f 735/1/254 723/1/150 736/1/255
f 734/1/150 732/1/150 721/1/150
f 734/1/150 721/1/150 722/1/150
f 737/1/256 738/1/257 724/1/150
f 737/1/256 724/1/150 739/1/258
f 739/1/258 724/1/150 713/1/150
f 739/1/258 713/1/150 726/1/248
f 738/1/257 736/1/255 723/1/150
f 738/1/257 723/1/150 724/1/150
f 740/1/150 741/1/150 742/1/150
f 740/1/150 742/1/150 743/1/150
f 744/1/150 743/1/150 742/1/150
f 744/1/150 742/1/150 745/1/150
f 746/1/150 745/1/150 742/1/150
f 746/1/150 742/1/150 747/1/150
f 748/1/150 747/1/150 742/1/150
f 748/1/150 742/1/150 749/1/150
f 750/1/150 749/1/150 742/1/150
f 750/1/150 742/1/150 751/1/150
f 752/1/150 751/1/150 742/1/150
f 752/1/150 742/1/150 741/1/150
f 733/1/253 753/1/259 740/1/150
f 733/1/253 740/1/150 734/1/150
f 734/1/150 740/1/150 743/1/150
f 734/1/150 743/1/150 732/1/150
f 753/1/259 754/1/260 741/1/150
f 753/1/259 741/1/150 740/1/150
f 729/1/251 731/1/150 744/1/150
f 729/1/251 744/1/150 755/1/261
f 755/1/261 744/1/150 745/1/150
f 755/1/261 745/1/150 756/1/262
f 731/1/150 732/1/150 743/1/150
f 731/1/150 743/1/150 744/1/150
f 757/1/263 758/1/264 746/1/150
f 757/1/263 746/1/150 759/1/150
f 759/1/150 746/1/150 747/1/150
f 759/1/150 747/1/150 760/1/150
f 758/1/264 756/1/262 745/1/150
f 758/1/264 745/1/150 746/1/150
f 761/1/265 762/1/150 748/1/150
f 761/1/265 748/1/150 763/1/266
f 763/1/266 748/1/150 749/1/150
f 763/1/266 749/1/150 764/1/267
f 762/1/150 760/1/150 747/1/150
f 762/1/150 747/1/150 748/1/150
f 765/1/268 766/1/269 750/1/150
f 765/1/268 750/1/150 767/1/270
f 767/1/270 750/1/150 751/1/150
f 767/1/270 751/1/150 768/1/271
f 766/1/269 764/1/267 749/1/150
f 766/1/269 749/1/150 750/1/150
f 769/1/272 770/1/273 752/1/150
f 769/1/272 752/1/150 771/1/274
f 771/1/274 752/1/150 741/1/150
f 771/1/274 741/1/150 754/1/260
f 770/1/273 768/1/271 751/1/150
f 770/1/273 751/1/150 752/1/150
f 772/1/150 773/1/150 774/1/150
f 772/1/150 774/1/150 775/1/150
f 776/1/150 775/1/150 774/1/150
f 776/1/150 774/1/150 777/1/150
f 778/1/150 777/1/150 774/1/150
f 778/1/150 774/1/150 779/1/150
f 780/1/150 779/1/150 774/1/150
f 780/1/150 774/1/150 781/1/150
f 782/1/150 781/1/150 774/1/150
f 782/1/150 774/1/150 783/1/150
f 784/1/150 783/1/150 774/1/150
f 784/1/150 774/1/150 785/1/150
f 786/1/150 785/1/150 774/1/150
f 786/1/150 774/1/150 773/1/150
f 459/1/161 787/1/275 772/1/150
f 459/1/161 772/1/150 457/1/150
f 457/1/150 772/1/150 775/1/150
f 457/1/150 775/1/150 456/1/150
f 787/1/275 788/1/276 773/1/150
f 787/1/275 773/1/150 772/1/150
f 455/1/150 454/1/150 776/1/150
f 455/1/150 776/1/150 478/1/150
f 478/1/150 776/1/150 777/1/150
f 478/1/150 777/1/150 481/1/150
f 454/1/150 456/1/150 775/1/150
f 454/1/150 775/1/150 776/1/150
f 498/1/177 500/1/150 778/1/150
f 498/1/177 778/1/150 789/1/277
f 789/1/277 778/1/150 779/1/150
f 789/1/277 779/1/150 790/1/278
f 500/1/150 481/1/150 777/1/150
f 500/1/150 777/1/150 778/1/150
f 791/1/279 792/1/280 780/1/150
f 791/1/279 780/1/150 793/1/281
f 793/1/281 780/1/150 781/1/150
f 793/1/281 781/1/150 794/1/282
f 792/1/280 790/1/278 779/1/150
f 792/1/280 779/1/150 780/1/150
f 795/1/283 796/1/284 782/1/150
f 795/1/283 782/1/150 797/1/285
f 797/1/285 782/1/150 783/1/150
f 797/1/285 783/1/150 798/1/286
f 796/1/284 794/1/282 781/1/150
f 796/1/284 781/1/150 782/1/150
f 761/1/265 799/1/287 784/1/150
f 761/1/265 784/1/150 762/1/150
f 762/1/150 784/1/150 785/1/150
f 762/1/150 785/1/150 760/1/150
f 799/1/287 798/1/286 783/1/150
f 799/1/287 783/1/150 784/1/150
f 757/1/263 759/1/150 786/1/150
f 757/1/263 786/1/150 800/1/288
f 800/1/288 786/1/150 773/1/150
f 800/1/288 773/1/150 788/1/276
f 759/1/150 760/1/150 785/1/150
f 759/1/150 785/1/150 786/1/150
f 801/1/150 802/1/150 803/1/150
f 801/1/150 803/1/150 804/1/150
f 804/1/150 803/1/150 805/1/150
f 804/1/150 805/1/150 806/1/150
f 802/1/150 807/1/150 808/1/150
f 802/1/150 808/1/150 803/1/150
f 803/1/150 808/1/150 809/1/150
f 803/1/150 809/1/150 805/1/150
f 693/1/242 692/1/150 801/1/150
f 693/1/242 801/1/150 810/1/289
f 810/1/289 801/1/150 804/1/150
f 810/1/289 804/1/150 811/1/290
f 811/1/290 804/1/150 806/1/150
f 811/1/290 806/1/150 812/1/291
f 812/1/291 806/1/150 483/1/150
f 812/1/291 483/1/150 482/1/165
f 806/1/150 805/1/150 480/1/150
f 806/1/150 480/1/150 483/1/150
f 805/1/150 809/1/150 479/1/150
f 805/1/150 479/1/150 480/1/150
f 809/1/150 453/1/150 455/1/150
f 809/1/150 455/1/150 479/1/150
f 808/1/150 452/1/150 453/1/150
f 808/1/150 453/1/150 809/1/150
f 807/1/150 451/1/150 452/1/150
f 807/1/150 452/1/150 808/1/150
f 695/1/150 449/1/150 451/1/150
f 695/1/150 451/1/150 807/1/150
f 694/1/150 695/1/150 807/1/150
f 694/1/150 807/1/150 802/1/150
f 692/1/150 694/1/150 802/1/150
f 692/1/150 802/1/150 801/1/150
f 813/1/150 814/1/150 815/1/150
f 813/1/150 815/1/150 816/1/150
f 816/1/150 815/1/150 817/1/150
f 816/1/150 817/1/150 818/1/150
f 814/1/150 819/1/150 820/1/150
f 814/1/150 820/1/150 815/1/150
f 815/1/150 820/1/150 821/1/150
f 815/1/150 821/1/150 817/1/150
f 822/1/292 823/1/293 813/1/150
f 822/1/292 813/1/150 824/1/294
f 824/1/294 813/1/150 816/1/150
f 824/1/294 816/1/150 825/1/295
f 825/1/295 816/1/150 818/1/150
f 825/1/295 818/1/150 826/1/296
f 826/1/296 818/1/150 425/1/150
f 826/1/296 425/1/150 424/1/151
f 818/1/150 817/1/150 439/1/150
f 818/1/150 439/1/150 425/1/150
f 817/1/150 821/1/150 437/1/150
f 817/1/150 437/1/150 439/1/150
f 821/1/150 594/1/150 438/1/150
f 821/1/150 438/1/150 437/1/150
f 820/1/150 603/1/150 594/1/150
f 820/1/150 594/1/150 821/1/150
f 819/1/150 601/1/150 603/1/150
f 819/1/150 603/1/150 820/1/150
f 827/1/297 602/1/214 601/1/150
f 827/1/297 601/1/150 819/1/150
f 828/1/298 827/1/297 819/1/150
f 828/1/298 819/1/150 814/1/150
f 823/1/293 828/1/298 814/1/150
f 823/1/293 814/1/150 813/1/150
f 16/1/7 15/1/6 430/1/156
f 16/1/7 430/1/156 429/1/155
f 17/1/8 16/1/7 429/1/155
f 17/1/8 429/1/155 431/1/157
f 18/1/9 17/1/8 431/1/157
f 18/1/9 431/1/157 432/1/158
f 19/1/10 18/1/9 432/1/158
f 19/1/10 432/1/158 434/1/159
f 69/1/17 68/1/16 482/1/165
f 69/1/17 482/1/165 484/1/166
f 71/1/18 69/1/17 484/1/166
f 71/1/18 484/1/166 485/1/167
f 74/1/20 71/1/18 485/1/167
f 74/1/20 485/1/167 487/1/169
f 72/1/19 74/1/20 487/1/169
f 72/1/19 487/1/169 486/1/168
f 102/1/32 72/1/19 486/1/168
f 102/1/32 486/1/168 516/1/181
f 103/1/33 102/1/32 516/1/181
f 103/1/33 516/1/181 517/1/182
f 106/1/35 103/1/33 517/1/182
f 106/1/35 517/1/182 519/1/184
f 104/1/34 106/1/35 519/1/184
f 104/1/34 519/1/184 518/1/183
f 134/1/48 104/1/34 518/1/183
f 134/1/48 518/1/183 548/1/197
f 135/1/49 134/1/48 548/1/197
f 135/1/49 548/1/197 549/1/198
f 138/1/51 135/1/49 549/1/198
f 138/1/51 549/1/198 551/1/200
f 136/1/50 138/1/51 551/1/200
f 136/1/50 551/1/200 550/1/199
f 408/1/143 410/1/145 823/1/293
f 408/1/143 823/1/293 822/1/292
f 410/1/145 414/1/149 828/1/298
f 410/1/145 828/1/298 823/1/293
f 414/1/149 413/1/148 827/1/297
f 414/1/149 827/1/297 828/1/298
f 413/1/148 188/1/65 602/1/214
f 413/1/148 602/1/214 827/1/297
f 44/1/11 373/1/126 787/1/275
f 44/1/11 787/1/275 459/1/161
f 373/1/126 374/1/127 788/1/276
f 373/1/126 788/1/276 787/1/275
f 374/1/127 386/1/139 800/1/288
f 374/1/127 800/1/288 788/1/276
f 386/1/139 343/1/114 757/1/263
f 386/1/139 757/1/263 800/1/288
f 315/1/102 317/1/103 730/1/252
f 315/1/102 730/1/252 729/1/251
f 317/1/103 314/1/101 728/1/250
f 317/1/103 728/1/250 730/1/252
f 314/1/101 313/1/100 727/1/249
f 314/1/101 727/1/249 728/1/250
f 313/1/100 294/1/97 709/1/246
f 313/1/100 709/1/246 727/1/249
f 188/1/65 186/1/64 600/1/213
f 188/1/65 600/1/213 602/1/214
f 186/1/64 185/1/63 599/1/212
f 186/1/64 599/1/212 600/1/213
f 185/1/63 184/1/62 598/1/211
f 185/1/63 598/1/211 599/1/212
f 184/1/62 49/1/15 463/1/164
f 184/1/62 463/1/164 598/1/211
f 275/1/90 19/1/10 434/1/159
f 275/1/90 434/1/159 689/1/239
f 276/1/91 275/1/90 689/1/239
f 276/1/91 689/1/239 690/1/240
f 277/1/92 276/1/91 690/1/240
f 277/1/92 690/1/240 691/1/241
f 278/1/93 277/1/92 691/1/241
f 278/1/93 691/1/241 693/1/242
f 294/1/97 293/1/96 707/1/245
f 294/1/97 707/1/245 709/1/246
f 293/1/96 292/1/95 706/1/244
f 293/1/96 706/1/244 707/1/245
f 292/1/95 291/1/94 705/1/243
f 292/1/95 705/1/243 706/1/244
f 291/1/94 262/1/89 677/1/238
f 291/1/94 677/1/238 705/1/243
f 165/1/58 136/1/50 550/1/199
f 165/1/58 550/1/199 579/1/207
f 166/1/59 165/1/58 579/1/207
f 166/1/59 579/1/207 580/1/208
f 167/1/60 166/1/59 580/1/208
f 167/1/60 580/1/208 581/1/209
f 169/1/61 167/1/60 581/1/209
f 169/1/61 581/1/209 583/1/210
f 240/1/79 239/1/78 653/1/227
f 240/1/79 653/1/227 655/1/229
f 242/1/81 240/1/79 655/1/229
f 242/1/81 655/1/229 656/1/230
f 243/1/82 242/1/81 656/1/230
f 243/1/82 656/1/230 657/1/231
f 244/1/83 243/1/82 657/1/231
f 244/1/83 657/1/231 659/1/232
f 204/1/66 169/1/61 583/1/210
f 204/1/66 583/1/210 618/1/215
f 205/1/67 204/1/66 618/1/215
f 205/1/67 618/1/215 619/1/216
f 206/1/68 205/1/67 619/1/216
f 206/1/68 619/1/216 620/1/217
f 208/1/69 206/1/68 620/1/217
f 208/1/69 620/1/217 622/1/218
f 227/1/75 228/1/76 642/1/225
f 227/1/75 642/1/225 641/1/224
f 229/1/77 227/1/75 641/1/224
f 229/1/77 641/1/224 643/1/226
f 221/1/71 229/1/77 643/1/226
f 221/1/71 643/1/226 634/1/220
f 219/1/70 221/1/71 634/1/220
f 219/1/70 634/1/220 633/1/219
f 15/1/6 14/1/5 428/1/154
f 15/1/6 428/1/154 430/1/156
f 14/1/5 13/1/4 427/1/153
f 14/1/5 427/1/153 428/1/154
f 13/1/4 11/1/3 426/1/152
f 13/1/4 426/1/152 427/1/153
f 11/1/3 10/1/2 424/1/151
f 11/1/3 424/1/151 426/1/152
f 68/1/16 398/1/142 812/1/291
f 68/1/16 812/1/291 482/1/165
f 398/1/142 397/1/141 811/1/290
f 398/1/142 811/1/290 812/1/291
f 397/1/141 396/1/140 810/1/289
f 397/1/141 810/1/289 811/1/290
f 396/1/140 278/1/93 693/1/242
f 396/1/140 693/1/242 810/1/289
f 409/1/144 408/1/143 822/1/292
f 409/1/144 822/1/292 824/1/294
f 411/1/146 409/1/144 824/1/294
f 411/1/146 824/1/294 825/1/295
f 412/1/147 411/1/146 825/1/295
f 412/1/147 825/1/295 826/1/296
f 10/1/2 412/1/147 826/1/296
f 10/1/2 826/1/296 424/1/151
f 343/1/114 345/1/115 758/1/264
f 343/1/114 758/1/264 757/1/263
f 345/1/115 342/1/113 756/1/262
f 345/1/115 756/1/262 758/1/264
f 342/1/113 341/1/112 755/1/261
f 342/1/113 755/1/261 756/1/262
f 341/1/112 315/1/102 729/1/251
f 341/1/112 729/1/251 755/1/261
f 45/1/12 44/1/11 459/1/161
f 45/1/12 459/1/161 458/1/160
f 46/1/13 45/1/12 458/1/160
f 46/1/13 458/1/160 460/1/162
f 47/1/14 46/1/13 460/1/162
f 47/1/14 460/1/162 461/1/163
f 49/1/15 47/1/14 461/1/163
f 49/1/15 461/1/163 463/1/164
f 228/1/76 226/1/74 640/1/223
f 228/1/76 640/1/223 642/1/225
f 226/1/74 225/1/73 639/1/222
f 226/1/74 639/1/222 640/1/223
f 225/1/73 224/1/72 638/1/221
f 225/1/73 638/1/221 639/1/222
f 224/1/72 208/1/69 622/1/218
f 224/1/72 622/1/218 638/1/221
f 239/1/78 241/1/80 654/1/228
f 239/1/78 654/1/228 653/1/227
f 241/1/80 249/1/85 663/1/234
f 241/1/80 663/1/234 654/1/228
f 249/1/85 248/1/84 662/1/233
f 249/1/85 662/1/233 663/1/234
f 248/1/84 219/1/70 633/1/219
f 248/1/84 633/1/219 662/1/233
f 262/1/89 261/1/88 675/1/237
f 262/1/89 675/1/237 677/1/238
f 261/1/88 260/1/87 674/1/236
f 261/1/88 674/1/236 675/1/237
f 260/1/87 259/1/86 673/1/235
f 260/1/87 673/1/235 674/1/236
f 259/1/86 244/1/83 659/1/232
f 259/1/86 659/1/232 673/1/235
f 81/1/25 80/1/24 494/1/173
f 81/1/25 494/1/173 496/1/175
f 83/1/27 81/1/25 496/1/175
f 83/1/27 496/1/175 497/1/176
f 86/1/29 83/1/27 497/1/176
f 86/1/29 497/1/176 499/1/178
f 84/1/28 86/1/29 499/1/178
f 84/1/28 499/1/178 498/1/177
f 109/1/37 108/1/36 522/1/185
f 109/1/37 522/1/185 524/1/186
f 111/1/38 109/1/37 524/1/186
f 111/1/38 524/1/186 525/1/187
f 114/1/41 111/1/38 525/1/187
f 114/1/41 525/1/187 527/1/189
f 112/1/39 114/1/41 527/1/189
f 112/1/39 527/1/189 526/1/188
f 352/1/120 351/1/119 765/1/268
f 352/1/120 765/1/268 767/1/270
f 354/1/122 352/1/120 767/1/270
f 354/1/122 767/1/270 768/1/271
f 357/1/125 354/1/122 768/1/271
f 357/1/125 768/1/271 770/1/273
f 355/1/123 357/1/125 770/1/273
f 355/1/123 770/1/273 769/1/272
f 381/1/134 383/1/136 796/1/284
f 381/1/134 796/1/284 795/1/283
f 383/1/136 380/1/133 794/1/282
f 383/1/136 794/1/282 796/1/284
f 380/1/133 378/1/131 793/1/281
f 380/1/133 793/1/281 794/1/282
f 378/1/131 377/1/130 791/1/279
f 378/1/131 791/1/279 793/1/281
f 347/1/116 385/1/138 799/1/287
f 347/1/116 799/1/287 761/1/265
f 385/1/138 384/1/137 798/1/286
f 385/1/138 798/1/286 799/1/287
f 384/1/137 382/1/135 797/1/285
f 384/1/137 797/1/285 798/1/286
f 382/1/135 381/1/134 795/1/283
f 382/1/135 795/1/283 797/1/285
f 148/1/55 150/1/57 563/1/205
f 148/1/55 563/1/205 562/1/204
f 150/1/57 147/1/54 561/1/203
f 150/1/57 561/1/203 563/1/205
f 147/1/54 145/1/53 560/1/202
f 147/1/54 560/1/202 561/1/203
f 145/1/53 144/1/52 558/1/201
f 145/1/53 558/1/201 560/1/202
f 323/1/107 325/1/109 738/1/257
f 323/1/107 738/1/257 737/1/256
f 325/1/109 322/1/106 736/1/255
f 325/1/109 736/1/255 738/1/257
f 322/1/106 320/1/105 735/1/254
f 322/1/106 735/1/254 736/1/255
f 320/1/105 319/1/104 733/1/253
f 320/1/105 733/1/253 735/1/254
f 144/1/52 311/1/98 725/1/247
f 144/1/52 725/1/247 558/1/201
f 311/1/98 312/1/99 726/1/248
f 311/1/98 726/1/248 725/1/247
f 312/1/99 324/1/108 739/1/258
f 312/1/99 739/1/258 726/1/248
f 324/1/108 323/1/107 737/1/256
f 324/1/108 737/1/256 739/1/258
f 77/1/22 76/1/21 490/1/170
f 77/1/22 490/1/170 492/1/171
f 79/1/23 77/1/22 492/1/171
f 79/1/23 492/1/171 493/1/172
f 82/1/26 79/1/23 493/1/172
f 82/1/26 493/1/172 495/1/174
f 80/1/24 82/1/26 495/1/174
f 80/1/24 495/1/174 494/1/173
f 351/1/119 353/1/121 766/1/269
f 351/1/119 766/1/269 765/1/268
f 353/1/121 350/1/118 764/1/267
f 353/1/121 764/1/267 766/1/269
f 350/1/118 348/1/117 763/1/266
f 350/1/118 763/1/266 764/1/267
f 348/1/117 347/1/116 761/1/265
f 348/1/117 761/1/265 763/1/266
f 76/1/21 100/1/30 514/1/179
f 76/1/21 514/1/179 490/1/170
f 100/1/30 101/1/31 515/1/180
f 100/1/30 515/1/180 514/1/179
f 101/1/31 117/1/44 532/1/194
f 101/1/31 532/1/194 515/1/180
f 117/1/44 116/1/43 530/1/192
f 117/1/44 530/1/192 532/1/194
f 149/1/56 148/1/55 562/1/204
f 149/1/56 562/1/204 564/1/206
f 133/1/47 149/1/56 564/1/206
f 133/1/47 564/1/206 547/1/196
f 132/1/46 133/1/47 547/1/196
f 132/1/46 547/1/196 546/1/195
f 108/1/36 132/1/46 546/1/195
f 108/1/36 546/1/195 522/1/185
f 116/1/43 118/1/45 531/1/193
f 116/1/43 531/1/193 530/1/192
f 118/1/45 115/1/42 529/1/191
f 118/1/45 529/1/191 531/1/193
f 115/1/42 113/1/40 528/1/190
f 115/1/42 528/1/190 529/1/191
f 113/1/40 112/1/39 526/1/188
f 113/1/40 526/1/188 528/1/190
f 377/1/130 379/1/132 792/1/280
f 377/1/130 792/1/280 791/1/279
f 379/1/132 376/1/129 790/1/278
f 379/1/132 790/1/278 792/1/280
f 376/1/129 375/1/128 789/1/277
f 376/1/129 789/1/277 790/1/278
f 375/1/128 84/1/28 498/1/177
f 375/1/128 498/1/177 789/1/277
f 319/1/104 339/1/110 753/1/259
f 319/1/104 753/1/259 733/1/253
f 339/1/110 340/1/111 754/1/260
f 339/1/110 754/1/260 753/1/259
f 340/1/111 356/1/124 771/1/274
f 340/1/111 771/1/274 754/1/260
f 356/1/124 355/1/123 769/1/272
f 356/1/124 769/1/272 771/1/274
# Vertices: 828, normals: 298, texture coordinates: 1, faces: 1656

